<svg width="120" height="34" viewBox="0 0 120 34" fill="none" xmlns="http://www.w3.org/2000/svg">
<path fill-rule="evenodd" clip-rule="evenodd" d="M71.5931 0.117266C71.3082 0.242815 71.0869 0.64963 71.0219 1.16706C70.996 1.37154 70.9296 1.7235 70.8742 1.94961C70.8186 2.17541 70.7163 2.62916 70.6471 2.95796C70.5776 3.28646 70.4621 3.82431 70.3899 4.15281C70.318 4.48161 70.2031 5.01916 70.1346 5.34796C70.066 5.67646 69.977 6.07992 69.9366 6.24417C69.8966 6.40842 69.8314 6.72778 69.792 6.95359C69.7526 7.1797 69.6759 7.53257 69.622 7.73796C69.5679 7.94335 69.4674 8.38033 69.3988 8.70883C69.3303 9.03764 69.2301 9.47431 69.1766 9.6797C69.1227 9.88509 69.0057 10.3894 68.9164 10.8002C68.827 11.211 68.7097 11.715 68.6553 11.9204C68.6008 12.1258 68.5196 12.4619 68.4745 12.6673C68.4297 12.8727 68.3671 13.1585 68.3358 13.3023C68.3043 13.4462 68.2405 13.6308 68.1939 13.7131C68.1473 13.7951 68.0224 14.0809 67.9162 14.3479C67.6738 14.9576 66.6141 17.0417 66.329 17.4698C66.2114 17.6466 66.1151 17.8066 66.1151 17.8254C66.1151 17.9239 64.804 19.7065 64.6142 19.8659C64.5122 19.9519 64.4866 19.9461 64.4388 19.8272C64.3302 19.5588 64.3844 16.8156 64.5122 16.1031C64.5784 15.7335 64.6716 15.1789 64.7192 14.8708C64.7667 14.5627 64.8488 14.0416 64.9011 13.7131C64.9535 13.3843 65.0344 12.8635 65.081 12.5554C65.1273 12.2474 65.213 11.772 65.2717 11.4989C65.3301 11.2262 65.3779 10.8825 65.3779 10.735C65.3779 10.5878 65.4254 10.206 65.4838 9.88662C65.5418 9.56756 65.6287 9.02057 65.6769 8.67166C65.9605 6.60619 66.2517 5.0667 66.4463 4.60107C66.498 4.47765 66.6108 4.14153 66.6971 3.85417C67.4738 1.2661 67.4693 0.426263 66.6773 0.275726C66.1626 0.177908 65.599 0.691073 65.599 1.25757C65.599 1.34015 65.5493 1.55072 65.4883 1.72563C65.4275 1.90024 65.3779 2.12635 65.3779 2.22844C65.3779 2.33022 65.3295 2.63708 65.2705 2.90981C65.0774 3.80328 64.8617 5.04445 64.8599 5.2733C64.8581 5.52836 64.6151 6.49862 64.4975 6.72138C64.4545 6.80274 64.4184 6.93012 64.4169 7.00478C64.4157 7.07944 64.3504 7.27477 64.2719 7.43933C64.1937 7.60358 64.1284 7.78032 64.1269 7.83243C64.1257 7.88423 64.0938 7.9851 64.0562 8.0564C63.941 8.27459 63.504 9.29757 63.4354 9.50936C63.3716 9.70591 63.5157 9.74309 63.6147 9.55598C63.6628 9.46487 63.7638 9.32317 63.8396 9.24089C63.9151 9.15892 63.9771 9.06537 63.9771 9.03337C63.9771 9.00107 64.03 8.99558 64.0947 9.02088C64.2325 9.0742 64.188 9.66569 64.0075 10.1837C63.9503 10.3483 63.9034 10.568 63.9034 10.6722C63.9034 10.7764 63.8562 11.0327 63.7984 11.2418C63.7404 11.4508 63.6213 11.9579 63.5331 12.3686C63.445 12.7794 63.3265 13.2642 63.2696 13.4462C63.2128 13.6281 63.1662 13.8697 63.1662 13.9828C63.1662 14.0962 63.1283 14.2833 63.0817 14.3991C63.0353 14.5146 62.9737 14.7605 62.9451 14.9454C62.9165 15.1301 62.841 15.5503 62.7776 15.8791C62.4007 17.8291 62.4347 20.4175 62.8488 21.3314C63.605 22.9995 65.115 22.5338 66.4842 20.2109C66.581 20.0466 66.6821 19.8955 66.7092 19.8748C66.7359 19.8543 66.8111 19.7325 66.8761 19.6039C67.016 19.3269 67.3568 18.9039 67.4398 18.9039C67.472 18.9039 67.5225 19.1976 67.552 19.5566C67.5815 19.9153 67.6519 20.2758 67.7081 20.3575C67.7646 20.4388 67.8107 20.5592 67.8107 20.6244C67.8107 21.087 69.0337 21.5517 69.5258 21.2762C70.2645 20.8627 70.7491 20.4297 71.4764 19.5329C71.964 18.9319 72.7502 17.8331 72.7502 17.7523C72.7502 17.7048 72.7758 17.7051 72.8233 17.7532C72.8636 17.7941 72.9087 18.331 72.9238 18.9469C72.9442 19.7961 72.98 20.1234 73.0718 20.3029C73.138 20.433 73.1924 20.5909 73.1924 20.6537C73.1924 20.9514 73.9684 21.5691 74.4608 21.6632C75.0016 21.7665 75.8896 21.6779 76.2568 21.4837C76.376 21.421 76.5173 21.3695 76.5712 21.3692C76.9986 21.367 78.4568 20.1213 79.1947 19.1279C79.9803 18.0701 79.9433 18.0976 80.0197 18.5093C80.3094 20.0731 81.5047 20.7643 82.8312 20.135C83.8 19.6752 84.0939 19.226 83.2219 19.5377C82.2353 19.8903 81.5745 19.6316 81.3817 18.8173C81.2671 18.3337 81.4879 16.1833 81.8554 14.1985C81.9126 13.8905 81.9932 13.4535 82.0347 13.2277C82.1295 12.7096 82.2889 12.0395 82.4432 11.5096C83.095 9.27136 83.0661 8.66556 82.2961 8.44707C81.3817 8.18774 81.0671 8.66099 80.7819 10.7255C80.7422 11.0129 80.6784 11.3323 80.6402 11.435C80.602 11.5376 80.5485 11.7561 80.5211 11.9204C80.4938 12.0849 80.4369 12.2864 80.3948 12.3686C80.3524 12.4509 80.2925 12.6356 80.2619 12.7794C80.1942 13.0954 79.9969 13.7012 79.8564 14.023C79.7998 14.1525 79.7538 14.2942 79.7538 14.3381C79.7538 14.3817 79.7003 14.5447 79.635 14.7001C79.5697 14.8555 79.475 15.0835 79.4245 15.2069C78.6999 16.9777 77.709 18.4181 76.6479 19.244C75.8941 19.8309 74.9219 20.0027 74.7706 19.5761C74.659 19.2613 74.6428 17.738 74.746 17.2608C74.786 17.0758 74.8461 16.704 74.8801 16.4347C74.9138 16.1653 74.9794 15.8733 75.0254 15.7862C75.0714 15.6987 75.1093 15.5482 75.1093 15.4516C75.1093 15.3547 75.1635 15.0753 75.2296 14.8303C75.2958 14.5856 75.3767 14.2339 75.4089 14.0492C75.4414 13.8643 75.5052 13.5449 75.5509 13.3395C75.5963 13.1341 75.667 12.8148 75.7079 12.6301C75.7485 12.4451 75.8126 12.0996 75.8502 11.8619C75.9157 11.4496 76.0565 10.9105 76.2253 10.4266C76.5369 9.53221 76.4 8.93799 75.8246 8.68689C75.2203 8.4233 74.6404 8.80909 74.444 9.60504C74.0178 11.332 73.8589 11.8527 73.553 12.5262C73.4763 12.695 73.4135 12.8629 73.4135 12.8998C73.4132 12.9677 72.7307 14.4451 72.6062 14.6465C72.568 14.7084 72.4482 14.9269 72.34 15.1322C71.7654 16.2229 70.2107 18.43 69.712 18.8627L69.3958 19.1376L69.3435 18.8527C69.2912 18.5678 69.4455 16.4575 69.5856 15.543C69.8621 13.7354 69.9911 13.0567 70.1102 12.7794C70.1544 12.6767 70.2167 12.475 70.2489 12.3312C70.2811 12.1876 70.3614 11.9018 70.4275 11.6964C70.4934 11.491 70.5924 11.1549 70.6474 10.9495C70.7022 10.7441 70.7969 10.3912 70.858 10.1654C70.9193 9.93933 71.0066 9.58646 71.0523 9.38107C71.098 9.17568 71.1858 8.80604 71.2478 8.55951C71.3098 8.31299 71.4087 7.89703 71.468 7.63496C71.5269 7.37289 71.6075 7.09803 71.6466 7.02367C71.686 6.94962 71.7179 6.78812 71.7179 6.6647C71.7179 6.54159 71.7534 6.34656 71.7964 6.23138C71.8728 6.02812 72.0247 5.39641 72.1619 4.7129C72.1989 4.52824 72.2768 4.19212 72.3351 3.96601C72.4846 3.38489 72.6047 2.87904 72.7159 2.36039C72.7689 2.11386 72.8474 1.77774 72.8901 1.61349C73.1933 0.448508 72.5433 -0.301433 71.5931 0.117266ZM87.642 2.82175C87.642 2.89092 87.5792 3.15147 87.5025 3.40074C87.368 3.83772 87.2922 4.19517 87.085 5.37386C87.0317 5.67585 86.934 5.98363 86.8675 6.05798C86.7742 6.16251 86.758 6.27099 86.7965 6.53062C86.8245 6.72138 86.8115 6.97553 86.7658 7.11601C86.7219 7.25283 86.6539 7.61668 86.6151 7.92476C86.5763 8.23284 86.5117 8.66983 86.4717 8.89563C86.3619 9.51423 86.2434 10.2715 86.1327 11.0617C86.0779 11.4517 85.9964 12.0063 85.9513 12.294C85.9065 12.5817 85.8222 13.1192 85.7642 13.4888C85.7061 13.8588 85.6201 14.4637 85.5729 14.8333C85.5257 15.2029 85.4393 15.8584 85.3813 16.2899C84.8453 20.2737 85.581 22.3309 87.4946 22.1971C88.4343 22.1313 90.0784 20.4154 90.5471 19.0108C90.6006 18.8509 90.877 18.4925 90.9116 18.5385C90.9236 18.5547 91.0256 18.75 91.1381 18.9728C91.2506 19.1952 91.3811 19.4192 91.4278 19.4704C91.4744 19.5213 91.5956 19.6736 91.697 19.8083C92.6279 21.0474 94.2552 21.6596 96.0434 21.4438C96.4672 21.3926 96.8654 21.3231 96.928 21.2896C97.1229 21.1851 97.8785 20.8459 97.9167 20.8459C98.0563 20.8459 98.9731 20.1326 99.3903 19.6995C99.9729 19.0947 100.565 18.2317 100.398 18.2317C100.363 18.2317 100.324 18.2569 100.31 18.2877C100.297 18.3185 100.196 18.3941 100.087 18.4556C99.9771 18.5175 99.7115 18.69 99.4967 18.839C97.2231 20.4178 94.7864 20.4202 93.2647 18.8454C92.7741 18.338 92.6754 18.1862 92.3572 17.4534C91.7872 16.14 92.2239 13.7759 93.2818 12.447C95.0081 10.2785 97.1034 9.90002 97.9696 11.6001C98.4016 12.4479 97.8695 13.0366 96.1941 13.5656C95.8494 13.6747 95.4424 13.8109 95.2893 13.8691C95.1365 13.927 94.9208 13.9758 94.8101 13.977C94.6995 13.9785 94.5259 14.0279 94.4245 14.0864C94.3232 14.1452 94.1574 14.1946 94.0561 14.1964C93.9547 14.1979 93.7736 14.2513 93.6539 14.3147C93.5339 14.3777 93.2936 14.4493 93.1194 14.4737C92.5097 14.5581 92.8219 14.7187 93.5995 14.7202C93.8554 14.7209 94.2868 14.7559 94.5581 14.7983C95.6051 14.9613 98.0301 14.6093 98.6891 14.1985C99.6237 13.6159 100.118 12.2693 99.7046 11.4304C99.639 11.2969 99.5852 11.1342 99.5852 11.0681C99.5852 10.7115 98.5333 9.46974 97.9964 9.19244C94.4844 7.37838 89.7972 12.1721 90.4658 16.8942L90.5251 17.312L90.0664 17.9388C89.0927 19.2693 87.9148 20.3977 87.5001 20.3977C86.9376 20.3977 86.835 18.3767 87.2113 14.7215C87.2558 14.29 87.3054 13.4331 87.322 12.8169C87.3382 12.2007 87.3839 11.2933 87.4233 10.8002C87.4628 10.3071 87.5319 9.18116 87.577 8.29806C87.6694 6.48796 87.6634 6.50563 88.1961 6.50563C88.5227 6.50563 89.0392 6.42579 89.9004 6.24204C89.9867 6.22345 90.0739 6.14422 90.0944 6.0653C90.1434 5.87515 89.7346 5.81176 88.6653 5.84376C87.6724 5.87362 87.7485 6.01288 87.7789 4.22137C87.7972 3.14263 87.7813 2.6965 87.7235 2.6965C87.6787 2.6965 87.642 2.75288 87.642 2.82175ZM111.948 8.44585C108.956 9.5252 108.044 12.7819 110.386 14.027C110.756 14.2238 111.485 14.4018 112.155 14.4585C116.853 14.8559 119.041 18.69 116.694 22.4135C115.972 23.5599 113.936 25.4897 112.645 26.2515C111.623 26.854 111.405 26.9774 111.234 27.0487C111.132 27.0908 110.85 27.2233 110.607 27.3431C110.136 27.5753 108.846 28.0906 108.736 28.0906C108.7 28.0906 108.575 28.1409 108.459 28.2021C108.343 28.2637 108.187 28.314 108.114 28.3143C108.04 28.3146 107.91 28.3527 107.824 28.3993C107.659 28.4889 107.398 28.5617 105.704 28.9905C105.522 29.0368 105.256 29.1105 105.115 29.1544C104.877 29.2278 104.508 29.3049 103.419 29.5079C103.196 29.5496 102.781 29.6322 102.497 29.692C101.579 29.8845 99.4261 30.2082 97.2631 30.4788C96.6537 30.5549 96.0566 30.633 94.3508 30.86C93.289 31.0014 91.9993 31.1434 90.9964 31.2296C90.4694 31.2747 89.6233 31.3564 89.1165 31.4106C88.6097 31.4649 87.7638 31.517 87.2366 31.5267C85.4793 31.5581 84.7301 31.6252 84.7301 31.7504C84.7301 31.8287 84.7969 31.8577 84.9512 31.8467C85.073 31.8379 86.3005 31.8114 87.679 31.7876C89.0575 31.7638 90.2986 31.7135 90.4367 31.6754C90.5747 31.6377 90.7143 31.6233 90.7468 31.6434C90.8075 31.6815 91.9505 31.6026 94.0561 31.4146C94.725 31.3552 95.5377 31.2872 95.8623 31.2641C96.1865 31.2409 96.6844 31.1885 96.968 31.1476C97.2519 31.1068 97.849 31.0431 98.2951 31.0063C99.7545 30.8853 101.679 30.6476 102.903 30.4373C103.247 30.3779 103.729 30.2996 103.972 30.2627C104.743 30.1463 105.361 30.0272 105.741 29.922C105.944 29.866 106.276 29.7828 106.478 29.7374C106.681 29.6916 107.046 29.603 107.289 29.5405C107.533 29.4777 107.897 29.3845 108.1 29.333C108.303 29.2812 108.552 29.2013 108.653 29.155C108.754 29.1087 109.082 28.9975 109.38 28.9079C109.679 28.8183 110.011 28.6988 110.118 28.6425C110.224 28.5858 110.351 28.5395 110.398 28.5392C110.445 28.5389 110.578 28.491 110.693 28.4328C110.808 28.3743 111.051 28.2689 111.234 28.1979C114.46 26.9476 117.757 23.9076 118.682 21.3314C119.739 18.3849 118.245 15.0049 115.288 13.6537C114.518 13.3017 113.666 13.0037 113.429 13.0031C112.45 13.0016 110.92 12.5722 110.794 12.2638C110.391 11.2777 111.213 10.2492 112.855 9.68397C114.385 9.158 115.973 10.1356 115.552 11.3441C115.494 11.5099 115.465 11.6641 115.488 11.687C115.538 11.7372 115.952 11.3511 115.952 11.2546C115.952 11.2165 116.006 11.1241 116.073 11.0495C116.423 10.6573 116.186 9.67026 115.586 9.02545C114.963 8.35504 113.046 8.0497 111.948 8.44585ZM8.23209 8.63234C8.21254 8.65215 7.95537 8.70274 7.65999 8.74509C6.94772 8.84748 6.19936 9.09066 5.1093 9.57335C3.88178 10.117 1.38643 12.2358 1.38643 12.734C1.38643 12.8029 1.06909 13.2585 0.999311 13.2898C0.968931 13.3036 0.943965 13.3453 0.943965 13.3831C0.943965 13.4206 0.831771 13.6948 0.69431 13.9929C0.199511 15.067 0.127322 15.3203 0.0115179 16.388C-0.0835315 17.2626 0.426607 19.0764 0.918699 19.6136C0.994197 19.6956 1.11271 19.8528 1.18219 19.9628C2.15705 21.5023 6.00776 22.5731 8.5007 21.9978C10.4227 21.5541 12.0804 20.7774 13.0715 19.8559C13.193 19.7428 13.3512 19.6313 13.4225 19.6078C13.4941 19.5844 13.5338 19.5341 13.5103 19.496C13.4496 19.3963 13.2264 19.4107 12.9852 19.5295C12.5493 19.7446 12.244 19.8674 11.7444 20.0293C11.4605 20.121 11.1122 20.2374 10.9702 20.2877C8.69381 21.0925 5.32707 20.9916 3.41766 20.0609C2.77367 19.7474 1.6812 18.7143 1.6812 18.4194C1.6812 18.3938 1.61894 18.232 1.54314 18.0595C0.491578 15.6734 2.3297 12.2925 5.52379 10.7377C5.833 10.5872 6.13319 10.4641 6.19094 10.4641C6.24899 10.4641 6.3278 10.4324 6.3663 10.394C6.56181 10.198 8.30128 9.92745 8.97986 9.98748C11.8443 10.2404 12.5758 12.7084 10.1448 13.9182C9.18078 14.3978 7.11737 14.9467 6.28057 14.9457C6.11363 14.9454 5.79871 14.9814 5.58003 15.0256C5.36166 15.0698 4.72128 15.1286 4.157 15.1563C3.11055 15.2078 2.75201 15.3309 3.35359 15.4324C3.5082 15.4583 3.73439 15.5129 3.85591 15.5534C5.25458 16.0199 9.04423 15.8557 10.3069 15.2736C11.0986 14.9086 11.2574 14.8257 11.56 14.6179C11.9348 14.3607 12.5908 13.6973 12.5947 13.5717C12.5959 13.5263 12.6612 13.3544 12.7397 13.1902C13.1301 12.3714 12.7719 10.9123 11.9511 9.97651C11.7522 9.74979 11.1097 9.26893 11.0057 9.26893C10.9554 9.26893 10.8751 9.22078 10.8267 9.16197C10.7786 9.10285 10.6333 9.03185 10.5046 9.00381C10.3755 8.97578 10.2369 8.92671 10.1962 8.89441C10.0104 8.74631 8.33948 8.52356 8.23209 8.63234ZM105.115 9.23632C103.715 9.47889 102.474 10.2937 102.239 11.1235C102.095 11.6336 101.998 12.5329 102.054 12.8254L102.111 13.1155L102.185 12.8916C102.225 12.7681 102.296 12.617 102.342 12.5554C102.387 12.4939 102.507 12.2803 102.608 12.0807C103.053 11.2034 103.912 10.7627 105.179 10.7627C106.675 10.7627 107.276 11.3813 106.776 12.4061C106.635 12.6959 106.453 13.0966 106.37 13.3023C106.328 13.405 106.261 13.5394 106.221 13.601C104.992 15.4824 103.816 17.9467 103.636 19.024C103.362 20.6512 104.684 21.687 106.164 21.0044C106.353 20.9172 106.524 20.8459 106.544 20.8459C106.628 20.8459 107.517 20.2855 107.717 20.1061C108.469 19.4326 109.04 18.7479 109.593 17.8544C109.924 17.3205 109.877 16.921 109.53 17.3169C109.314 17.5625 108.14 18.5245 107.803 18.7314C107.053 19.1919 106.046 19.5761 105.59 19.5761C105.093 19.5761 105.761 17.8523 107.263 15.2605C107.46 14.9205 107.621 14.5968 107.621 14.5414C107.621 14.4862 107.671 14.3991 107.732 14.3479C107.793 14.2967 107.842 14.2235 107.842 14.1851C107.842 14.112 108.092 13.5059 108.213 13.2847C109.275 11.3493 108.457 9.54501 106.362 9.19975C105.812 9.10894 105.856 9.10772 105.115 9.23632ZM55.9782 9.34846C54.8981 9.56756 54.6343 9.66965 53.9509 10.1341C53.0813 10.7249 51.4441 12.6874 51.4441 13.1393C51.4441 13.1957 51.3981 13.331 51.3421 13.4401C50.5216 15.0329 50.7424 17.1895 51.9148 19.0337C52.351 19.72 53.9482 20.9206 54.4246 20.9206C54.4761 20.9206 54.6307 20.9782 54.7687 21.0489C55.1886 21.2637 57.0683 21.2299 57.7475 20.9949C58.8862 20.6018 60.0028 19.6584 60.5319 18.6424C60.9148 17.9077 61.2489 17.1553 61.2505 17.0255C61.2511 16.9701 61.3025 16.776 61.3651 16.594C61.8174 15.2782 61.2887 13.1204 60.2572 12.0724C59.8018 11.6099 58.9608 10.987 58.7915 10.987C58.7395 10.987 58.6327 10.9376 58.5542 10.8773C58.1117 10.5384 57.9749 10.7981 58.3926 11.1835C60.2458 12.8928 60.5316 14.7699 59.3161 17.2513C58.2684 19.3896 56.4228 20.1085 54.4688 19.1398C53.6161 18.7171 52.6238 17.503 52.6238 16.8829C52.6238 16.8195 52.5823 16.7257 52.5315 16.6742C52.3736 16.5136 52.4235 15.0097 52.6085 14.3619C53.0621 12.7724 54.5221 10.9428 55.7568 10.4156C56.7233 10.0033 57.7222 9.87686 58.0467 10.1255C58.2001 10.2431 58.5217 10.2794 58.5217 10.1792C58.5217 10.1206 58.2441 9.84426 57.9959 9.65563C57.6717 9.40941 56.5332 9.23602 55.9782 9.34846ZM20.2595 9.45786C18.1419 9.73273 16.4803 10.8426 15.1548 12.8678C14.7129 13.5425 14.2073 14.8284 14.0608 15.6491C14.0238 15.8578 13.9615 16.1796 13.9227 16.3646C13.3422 19.1242 14.844 21.7546 17.4209 22.4909C18.819 22.8904 20.6394 22.4561 21.992 21.3996C22.1541 21.2732 22.3412 21.1388 22.4077 21.101C22.6155 20.9837 23.2096 20.4565 23.727 19.9308C24.2446 19.4049 24.4874 19.3052 24.5743 19.5831C25.0143 20.9879 26.98 22.1374 28.9586 22.1471C30.0745 22.1526 30.0023 22.1657 31.2702 21.7202C33.2115 21.0382 34.9043 19.208 35.4641 17.1861C35.5922 16.7232 35.8148 15.092 35.7772 14.8903C35.7637 14.8181 35.7131 14.456 35.6647 14.0864C35.3684 11.8229 33.7411 9.76259 32.0291 9.48315C31.7899 9.44415 31.5734 9.40697 31.5481 9.40057C31.3484 9.34998 30.2559 9.52795 30.0372 9.64679C29.8904 9.72663 29.7373 9.79184 29.697 9.79184C29.2669 9.79184 27.436 11.5727 27.0576 12.3586C26.7343 13.0308 26.8095 13.0829 27.319 12.5402C28.3504 11.441 30.3525 10.5104 31.3754 10.6539C32.3166 10.7859 33.4358 11.7229 33.8251 12.7048C33.8657 12.8075 33.9436 12.9754 33.998 13.0781C35.1615 15.2767 33.8714 18.9654 31.5391 20.1085C30.0565 20.835 28.0863 20.9118 27.331 20.2721C27.267 20.2179 27.1897 20.1737 27.159 20.1737C26.5881 20.1737 25.806 18.6863 25.8809 17.742C25.9543 16.8156 25.7019 16.4295 25.0186 16.4234C24.5289 16.4188 24.4453 16.4819 23.8121 17.333C22.2531 19.4283 20.8529 20.5875 19.4365 20.955C17.799 21.3801 16.0295 20.3962 15.454 18.7412C15.263 18.1917 15.2245 16.2314 15.3963 15.8045C15.4456 15.6811 15.513 15.4626 15.5455 15.3187C15.6264 14.9634 15.8448 14.3293 15.9212 14.2281C15.9558 14.1827 16.0695 13.9822 16.1741 13.7826C16.8789 12.44 18.5799 11.0851 20.0267 10.714C20.2562 10.6548 20.56 10.5756 20.7016 10.5372C21.6151 10.291 22.8808 10.525 23.6121 11.0754C24.2738 11.5733 24.1772 11.0964 23.4665 10.3544C23.0108 9.879 22.306 9.52185 21.6969 9.45725C21.4536 9.43165 21.1883 9.40087 21.1071 9.38869C21.0262 9.3768 20.6445 9.40788 20.2595 9.45786ZM44.3668 9.42312C44.1843 9.45542 43.8997 9.48468 43.734 9.48772C43.407 9.49351 42.5311 9.73669 42.2174 9.90856C42.1097 9.96767 41.9873 10.0158 41.9449 10.0158C41.8721 10.0158 41.0218 10.4985 40.865 10.6289C40.8244 10.6628 40.6367 10.8066 40.4481 10.9486C40.0628 11.2387 39.5004 12.0505 39.5503 12.2446C39.5768 12.3473 39.6471 12.3107 39.9209 12.0526C40.1068 11.8771 40.2929 11.7339 40.3348 11.7339C40.3769 11.7339 40.4635 11.6876 40.5273 11.6312C41.0903 11.1345 43.7448 10.6265 44.6986 10.8331C44.8607 10.8685 45.1663 10.9331 45.3775 10.9769C45.5886 11.0208 45.8209 11.0891 45.8936 11.129C45.9661 11.1689 46.1881 11.2792 46.3869 11.3743C46.821 11.5818 47.3278 12.0697 47.6993 12.638C49.7795 15.82 46.5256 20.984 43.0398 20.0329C42.3001 19.8312 42.1329 20.1356 42.8554 20.3678C42.9366 20.394 43.0527 20.4565 43.1134 20.5065C43.9277 21.1769 46.0119 20.9648 47.3254 20.0777C51.6604 17.1502 50.3525 9.93781 45.3988 9.45451C45.1354 9.42861 44.8701 9.39783 44.809 9.38594C44.7482 9.37406 44.5491 9.39082 44.3668 9.42312ZM37.6932 10.1947C37.4318 10.3102 37.1437 10.6716 36.9064 11.182C36.8128 11.3828 36.7114 11.5584 36.6811 11.5721C36.6507 11.5858 36.626 11.6678 36.626 11.7543C36.626 11.8924 36.6371 11.8975 36.7181 11.7958C36.9602 11.4904 37.6698 11.0348 37.7365 11.1415C37.8202 11.2756 37.8186 15.0981 37.7347 16.1031C37.5735 18.0278 37.3569 20.0686 37.1759 21.3685C37.116 21.8 37.067 22.2642 37.0676 22.4001C37.0679 22.5357 37.0053 22.9726 36.9286 23.3709C36.4528 25.8374 36.1872 28.1811 35.9664 31.8571C35.9249 32.5528 35.9026 33.1339 35.9174 33.1488C36.0151 33.2478 36.3337 32.4126 36.6636 31.1903C36.719 30.9849 36.8137 30.6488 36.8739 30.4434C36.934 30.238 37.005 29.9354 37.0315 29.7712C37.0583 29.6069 37.1271 29.3458 37.1846 29.1907C37.2423 29.0359 37.2893 28.8067 37.2893 28.6818C37.2893 28.5565 37.3214 28.3935 37.3605 28.3194C37.4264 28.1951 37.517 27.8337 37.7272 26.8583C37.988 25.647 38.2328 24.0761 38.4723 22.0783C38.5117 21.7495 38.5766 21.2948 38.6166 21.0675C38.6566 20.8401 38.7075 20.3864 38.7297 20.0591C38.7523 19.7318 38.8173 19.0776 38.8744 18.6053C39.1427 16.3899 39.2456 14.2909 39.1358 13.2649C39.0877 12.8129 39.0308 12.2248 39.0098 11.9579C38.9048 10.6359 38.3568 9.90185 37.6932 10.1947ZM68.0143 30.6829C68.106 30.7006 68.2387 30.7 68.3091 30.6814C68.3798 30.6628 68.3046 30.6482 68.1424 30.6488C67.9803 30.6497 67.9226 30.665 68.0143 30.6829ZM76.2355 31.6885C76.372 31.7388 76.5321 31.7394 76.7146 31.6904C76.9742 31.6206 76.9631 31.6163 76.5101 31.6145C76.1019 31.613 76.061 31.6239 76.2355 31.6885ZM77.1733 31.6757C77.4191 31.7553 77.9118 31.7553 78.095 31.6757C78.1921 31.6334 78.0288 31.6124 77.6158 31.6136C77.195 31.6151 77.0497 31.6355 77.1733 31.6757ZM83.6045 31.7495C82.9205 31.8281 82.9434 31.9195 83.6394 31.8888C83.9892 31.8729 84.2831 31.8223 84.336 31.7687C84.4404 31.6629 84.3715 31.6611 83.6045 31.7495Z" fill="#4F4F4F"/>
</svg>
