<svg width="44" height="44" viewBox="0 0 44 44" fill="none" xmlns="http://www.w3.org/2000/svg">
<path fill-rule="evenodd" clip-rule="evenodd" d="M11.4412 19.1064C11.866 15.0428 14.4512 7.85681 22.0149 7.85681C29.6163 7.85681 32.4149 15.1145 32.9462 19.1669C32.6358 19.085 32.3095 19.0357 31.9482 19.0357C31.1102 19.0357 30.289 19.6313 29.5179 20.6787C28.7546 21.7157 28.0954 23.1238 27.5758 24.5781C27.0573 26.0292 26.686 27.5035 26.4899 28.6575C26.3916 29.2357 26.3393 29.7229 26.332 30.0811C26.3283 30.2612 26.3364 30.396 26.3512 30.488C26.3579 30.5294 26.3646 30.5533 26.3683 30.5648L26.549 30.7587L26.5762 30.7878L26.58 30.792L26.5838 30.7961L27.0102 31.2535L27.1216 31.3731L27.1526 31.4063L27.1553 31.4092L27.1581 31.4122L27.1692 31.4241L27.1829 31.4389L27.1993 31.4564L27.202 31.4593L27.2047 31.4622L27.2074 31.4651L27.2182 31.4767L27.2289 31.4881L27.2315 31.491L27.25 31.5109L27.2527 31.5137L27.2553 31.5165L27.2736 31.5361L27.2762 31.5389L27.2968 31.561L27.2994 31.5638L27.3045 31.5693L27.307 31.572L27.3197 31.5856L27.3248 31.591L27.3273 31.5937L27.3474 31.6153L27.3498 31.6179L27.3523 31.6206L27.4038 31.6759L27.4062 31.6784L27.4087 31.681L27.4111 31.6836L27.4135 31.6862L27.4327 31.7068L27.4728 31.7499L27.5076 31.7872L27.5099 31.7897L27.5122 31.7922L27.5145 31.7946L27.5168 31.7971L27.5758 31.8603L27.5825 31.8676L27.5892 31.8747L27.6003 31.8867L27.6092 31.8962L27.6291 31.9176L27.6313 31.9199L27.6379 31.927L27.6489 31.9388L27.6686 31.9599L27.6708 31.9623L27.6795 31.9716L27.6817 31.974L27.6839 31.9763L27.6904 31.9833L27.7077 32.0019L27.7423 32.039L27.7444 32.0413L27.7466 32.0436L27.7681 32.0667L27.7702 32.069L27.7724 32.0713L27.7745 32.0736L27.7767 32.0759L27.7831 32.0828L27.8132 32.115C27.9332 32.2438 28.0878 32.4696 28.2434 32.7231C28.404 32.9848 28.5812 33.3017 28.7463 33.6307C28.911 33.959 29.0671 34.3057 29.1829 34.6264C29.2945 34.9351 29.3851 35.2624 29.3851 35.5357V35.5387C29.3851 35.933 29.3851 36.8342 29.2913 37.7398C29.2443 38.1933 29.1727 38.6598 29.0616 39.0704C28.9534 39.4704 28.7949 39.8674 28.5455 40.1349C27.7058 41.0358 26.8407 41.0357 26.1066 41.0357H26.0896C25.6234 41.0357 25.3447 40.7885 25.1465 40.6127C25.1243 40.593 25.1031 40.5742 25.0828 40.5567C24.978 40.4668 24.8839 40.3955 24.7653 40.3429C24.6484 40.291 24.4907 40.25 24.2588 40.25H19.8649C19.633 40.25 19.4752 40.291 19.3584 40.3429C19.2398 40.3955 19.1457 40.4668 19.0409 40.5567C19.0206 40.5742 18.9994 40.5929 18.9773 40.6126L18.9771 40.6127C18.779 40.7885 18.5003 41.0357 18.0341 41.0357H18.0171C17.2829 41.0357 16.4179 41.0358 15.5782 40.1349C15.3288 39.8674 15.1703 39.4704 15.0621 39.0704C14.951 38.6598 14.8794 38.1933 14.8324 37.7398C14.7386 36.8342 14.7386 35.933 14.7386 35.5387V35.5387V35.5357C14.7386 35.2624 14.8292 34.9351 14.9408 34.6264C15.0566 34.3057 15.2127 33.959 15.3774 33.6307C15.5425 33.3017 15.7197 32.9848 15.8803 32.7231C16.0359 32.4696 16.1905 32.2438 16.3105 32.115L16.347 32.0759L16.3492 32.0736L16.3513 32.0713L16.3534 32.069L16.3556 32.0667L16.3577 32.0644L16.375 32.0459L16.3771 32.0436L16.3793 32.0413L16.3814 32.039L16.3836 32.0367L16.3987 32.0205L16.4008 32.0181L16.416 32.0019L16.4333 31.9833L16.4398 31.9763L16.442 31.974L16.4442 31.9716L16.4464 31.9693L16.4507 31.9646L16.4529 31.9623L16.4551 31.9599L16.4748 31.9388L16.4858 31.927L16.4924 31.9199L16.4946 31.9176L16.5345 31.8747L16.5412 31.8676L16.5479 31.8603L16.6069 31.7971L16.6092 31.7946L16.6115 31.7922L16.6138 31.7897L16.6161 31.7872L16.6509 31.7499L16.6532 31.7474L16.8116 31.5775L16.8167 31.572L16.8269 31.561L16.832 31.5555L16.8423 31.5445L16.8475 31.5389L16.8684 31.5165L16.871 31.5137L16.8736 31.5109L16.8869 31.4967L16.8922 31.491L16.8948 31.4881L16.9055 31.4767L16.9163 31.4651L16.9244 31.4564L16.9271 31.4535L16.9408 31.4389L16.9684 31.4092L17.0135 31.3608L17.0481 31.3237L17.1135 31.2535L17.2198 31.1394L17.223 31.136L17.2855 31.069L17.2922 31.0618L17.3537 30.9958L17.5437 30.792L17.5475 30.7878L17.5514 30.7837L17.5746 30.7587L17.5903 30.7419L17.6664 30.6603L17.6951 30.6295L17.6993 30.625L17.7554 30.5648C17.7591 30.5533 17.7657 30.5294 17.7724 30.488C17.7873 30.396 17.7954 30.2612 17.7917 30.0811C17.7844 29.7229 17.732 29.2357 17.6338 28.6575C17.4377 27.5035 17.0664 26.0292 16.5479 24.5781C16.0283 23.1238 15.3691 21.7157 14.6058 20.6787C13.8347 19.6313 13.0135 19.0357 12.1755 19.0357C11.9149 19.0357 11.6725 19.0614 11.4412 19.1064ZM19.4517 35.3568C18.7195 34.964 18.3532 34.5709 18.3532 33.7854V36.9282C18.3532 37.1901 18.4997 37.714 19.0855 37.714C19.4517 37.714 19.8178 37.3211 19.8178 36.9282C19.8178 36.8061 19.8202 36.69 19.8224 36.58C19.8345 35.9825 19.8429 35.5667 19.4517 35.3568ZM25.685 33.7854C25.685 34.5709 25.3188 34.964 24.5866 35.3568C24.1954 35.5667 24.2038 35.9825 24.2158 36.58C24.2181 36.69 24.2204 36.8061 24.2204 36.9282C24.2204 37.3211 24.5866 37.714 24.9527 37.714C25.5386 37.714 25.685 37.1901 25.685 36.9282V33.7854Z" fill="url(#paint0_angular)"/>
<path d="M12.7744 11.3081C15.5208 7.22452 20.4625 6.2824 22.355 6.40804C24.4842 6.40804 28.3871 7.91547 30.5161 10.177C32.2194 11.9863 33.3548 15.454 34.0645 18.4694C34.0645 18.8464 35.5055 19.8622 36.9032 19.6002C42.9355 18.4694 42.8172 14.0721 44 11.3081C42.5806 10.8054 39.1742 9.80011 36.9032 9.80011C34.0645 9.80011 33.7097 11.685 33 11.3081C32.2903 10.9312 31.6942 9.9554 32.6452 9.04625C36.1935 5.65391 36.9032 2.63849 36.9032 0C34.0645 3.76927 29.8064 6.03084 28.3871 6.03084C26.6129 6.03084 24.8387 5.27698 22.355 5.27698C19.5161 5.27698 16.6774 6.03084 15.2581 6.03084C13.271 6.03084 8.75269 2.01028 6.74194 0C8.51613 6.40804 10.0776 7.01085 10.6452 7.91547C11.3547 9.04625 12.2706 10.335 11.7097 10.9309C10.6452 12.0617 9.58064 9.80011 7.45161 9.80011C4.89677 9.80011 1.41935 10.8054 0 11.3081C0.354839 14.3232 1.41935 18.0925 6.03226 19.2233C7.96847 19.6979 9.9356 18.8464 10.2905 18.4694C10.2905 16.5848 11 13.9463 12.7744 11.3081Z" fill="url(#paint1_angular)"/>
<path d="M27.5509 30.0207C28.0027 30.5171 29.1005 31.7233 29.8752 33.0001C30.2628 31.7236 32.1996 29.8531 32.1998 28.3186C32.2 26.6162 32.329 24.3463 31.8124 22.7858C31.425 23.6369 30.0873 23.4308 29.4879 23.2113C29.1005 23.0694 27.1635 29.5952 27.5509 30.0207Z" fill="#A0712B"/>
<path d="M16.4491 30.0207C15.9973 30.5171 14.8995 31.7233 14.1248 33.0001C13.7372 31.7236 11.8004 29.8531 11.8002 28.3186C11.8 26.6162 11.671 24.3463 12.1876 22.7858C12.575 23.6369 13.9127 23.4308 14.5121 23.2113C14.8995 23.0694 16.8365 29.5952 16.4491 30.0207Z" fill="#A0712B"/>
<path d="M24.2 41.2503C23.9893 41.1183 22.9429 41.2504 22 41.2504C21.7905 41.2504 20.6172 41.25 20.1143 41.25C19.8 41.25 19.0667 41.7737 18.8572 42.0357C19.4857 42.8214 20.9943 43.2143 22 43.2143C23.0057 43.2143 24.5143 42.8214 25.1429 42.036C25.0381 41.9051 24.7027 41.5651 24.2 41.2503Z" fill="#A0712B"/>
<path d="M13.75 21.2143C13.4357 20.9 12.8333 20.5595 12.5714 20.4286C12.1785 20.9524 12.1785 21.6072 12.5714 22C13.3727 22.8013 14.1428 22.3929 14.5357 22L13.75 21.2143Z" fill="url(#paint2_angular)"/>
<path d="M30.6429 21.2143C30.9572 20.9 31.5595 20.5595 31.8214 20.4286C32.2143 20.9524 32.2143 21.6072 31.8214 22C31.0201 22.8013 30.25 22.3929 29.8572 22L30.6429 21.2143Z" fill="url(#paint3_angular)"/>
<defs>
<radialGradient id="paint0_angular" cx="0" cy="0" r="1" gradientUnits="userSpaceOnUse" gradientTransform="translate(22 29.8568) rotate(-90) scale(22 14.2594)">
<stop stop-color="#9F712A"/>
<stop offset="1" stop-color="#F5C782"/>
</radialGradient>
<radialGradient id="paint1_angular" cx="0" cy="0" r="1" gradientUnits="userSpaceOnUse" gradientTransform="translate(22 6.28571) rotate(-90) scale(3.92857 8.8)">
<stop stop-color="#987815"/>
<stop offset="1" stop-color="#E0D5B4"/>
</radialGradient>
<radialGradient id="paint2_angular" cx="0" cy="0" r="1" gradientUnits="userSpaceOnUse" gradientTransform="translate(13.4062 21.4444) rotate(90) scale(1.01581 1.12947)">
<stop stop-color="#772626"/>
<stop offset="1" stop-color="#D8B8B8"/>
</radialGradient>
<radialGradient id="paint3_angular" cx="0" cy="0" r="1" gradientUnits="userSpaceOnUse" gradientTransform="translate(30.9866 21.4444) rotate(90) scale(1.01581 1.12947)">
<stop stop-color="#772626"/>
<stop offset="1" stop-color="#ECCECE"/>
</radialGradient>
</defs>
</svg>
