<svg width="311" height="140" viewBox="0 0 311 140" fill="none" xmlns="http://www.w3.org/2000/svg">
<ellipse cx="155.5" cy="87.2436" rx="155.5" ry="52.4578" fill="#333333"/>
<ellipse cx="155.5" cy="83.0282" rx="155.5" ry="48.2425" fill="#C4C4C4"/>
<ellipse cx="153.627" cy="81.6233" rx="126.461" ry="39.3434" fill="#F2F2F2"/>
<path d="M192.501 63.3574L211.236 21.2038C200.932 13.3975 172.736 0.126953 140.512 0.126953C100.232 0.126953 109.131 9.02605 88.5225 9.49442C67.9141 9.9628 65.5722 31.9763 61.3569 31.9763C57.1415 31.9763 49.6475 48.3694 49.6475 58.2053C49.6475 68.0411 56.2048 63.3574 57.1415 70.8513C58.0782 78.3453 52.9261 74.5983 52.9261 84.4342C52.9261 92.3029 76.6571 99.5783 88.5225 102.232C96.1726 99.266 112.878 93.2396 118.498 92.8649C124.119 92.4902 170.176 73.0371 192.501 63.3574Z" fill="#DBA280"/>
<path d="M88.9911 101.295C91.1768 99.7339 118.311 89.7732 205.616 66.1672L214.047 56.3316V29.1659C211.237 25.8872 204.398 19.3298 199.527 19.3298C193.438 19.3298 195.78 21.2033 167.678 19.3298C139.575 17.4563 105.853 32.9126 93.6748 45.5587C83.9326 55.6756 86.1808 87.244 88.9911 101.295Z" fill="#712619"/>
<path d="M97.9546 94.739C99.8093 93.4239 122.039 85.8229 196.12 65.9391L203.274 57.6544V34.7723C200.889 32.0106 195.087 26.4872 190.954 26.4872C185.787 26.4872 187.774 28.0653 163.928 26.4872C140.082 24.9091 111.467 37.9283 101.134 48.5803C92.8675 57.1019 95.57 82.9034 97.9546 94.739Z" fill="#BD4C49"/>
<path d="M226.224 25.4199C225.756 16.5208 217.325 15.1157 213.11 14.6473C210.612 18.2381 204.96 26.4503 202.337 30.572C199.059 35.7241 174.235 44.1548 164.399 49.7753C154.563 55.3958 152.221 59.6111 150.816 63.8265C149.411 68.0419 140.512 66.1684 138.17 68.5102C135.828 70.8521 122.246 89.1187 118.967 97.081C115.688 105.043 115.688 119.563 118.967 126.12C122.246 132.677 131.613 123.31 140.512 126.12C149.411 128.93 159.247 123.31 166.741 126.12C174.235 128.93 175.172 121.436 177.514 113.474C179.855 105.512 205.148 82.0931 213.11 68.5102C221.072 54.9274 226.693 34.319 226.224 25.4199Z" fill="#712619"/>
<path d="M226.224 25.4191C225.756 16.52 217.325 16.9884 213.11 16.52C210.612 20.1109 206.834 26.4495 204.211 30.5712C200.932 35.7233 176.108 44.154 166.273 49.7745C156.437 55.395 154.095 59.6103 152.69 63.8257C151.285 68.0411 142.385 66.1676 140.044 68.5094C137.702 70.8513 124.119 89.1179 120.84 97.0802C117.562 105.043 117.562 107.384 120.84 113.942C124.119 120.499 131.613 115.815 140.512 118.625C149.411 121.436 159.247 115.815 166.741 118.625C174.235 121.436 175.172 121.436 177.514 113.473C179.855 105.511 205.148 82.0923 213.11 68.5094C221.072 54.9266 226.693 34.3182 226.224 25.4191Z" fill="#BD4C49"/>
<path d="M170.872 73.3453C172.106 68.7387 170.457 62.9481 169.479 60.6287C166.078 62.2318 159.185 66.0311 158.824 68.403C158.372 71.3678 153.179 79.2338 149.122 81.5757C145.066 83.9177 144.849 87.288 143.18 90.9554C141.512 94.6229 135.616 101.272 132.371 103.145C129.126 105.019 132.731 105.642 137.536 101.786C142.34 97.9304 143.666 95.5427 145.397 92.9206C147.129 90.2984 146.819 99.1304 147.881 102.844C148.943 106.557 144.481 109.134 141.659 114.549C138.836 119.964 146.869 110.459 149.755 106.089C152.64 101.719 149.829 96.8516 148.642 91.0474C147.454 85.2432 151.916 82.6669 157.235 76.892C162.554 71.1171 162.131 67.575 165.72 64.4217C169.308 61.2684 167.781 70.8031 166.815 75.6873C165.849 80.5715 160.062 85.5356 159.05 93.1506C158.038 100.766 163.111 104.868 163.876 107.13C164.641 109.392 159.431 113.482 157.014 118.663C154.597 123.844 164.253 113.402 166.436 107.815C168.618 102.229 162.032 97.378 161.89 91.511C161.747 85.644 169.329 79.1036 170.872 73.3453Z" fill="#B14543"/>
<path d="M223.414 62.4207V21.2039C215.764 28.2295 196.717 44.6225 181.729 53.99C162.994 65.6993 150.816 92.3966 149.411 102.232C148.006 112.068 150.348 124.714 157.842 124.714C165.336 124.714 174.703 133.613 185.476 132.208C196.248 130.803 205.616 125.183 211.705 124.714C217.794 124.246 214.983 120.967 214.983 115.347C214.983 110.851 220.604 78.1893 223.414 62.4207Z" fill="#712619"/>
<path d="M225.287 62.4206L222.477 24.014C214.827 31.0396 198.59 44.6224 183.602 53.9899C164.867 65.6992 152.69 92.3965 151.284 102.232C149.879 112.068 152.221 111.6 159.715 111.6C167.209 111.6 176.577 120.499 187.349 119.094C198.122 117.689 202.806 114.878 208.894 114.41C214.983 113.942 212.173 110.663 212.173 105.043C212.173 100.546 222.477 78.1892 225.287 62.4206Z" fill="#BD4C49"/>
<path d="M169.117 102.262C167.882 106.869 169.531 112.659 170.509 114.979C173.91 113.376 180.803 109.576 181.164 107.205C181.616 104.24 186.809 96.3738 190.866 94.0318C194.922 91.6899 195.139 88.3195 196.808 84.6521C198.476 80.9847 204.372 74.3358 207.617 72.4623C210.862 70.5888 207.257 69.9658 202.452 73.8215C197.648 77.6772 196.322 80.0648 194.591 82.687C192.859 85.3091 193.169 76.4771 192.107 72.7636C191.045 69.0501 195.507 66.474 198.329 61.0586C201.152 55.6432 193.119 65.1485 190.234 69.5186C187.348 73.8888 190.159 78.7559 191.346 84.5602C192.534 90.3644 188.072 92.9406 182.753 98.7155C177.435 104.49 177.857 108.033 174.269 111.186C170.68 114.339 172.207 104.804 173.173 99.9202C174.139 95.036 179.926 90.072 180.938 82.457C181.95 74.842 176.877 70.7398 176.112 68.4775C175.347 66.2152 180.557 62.1256 182.974 56.9444C185.391 51.7632 175.735 62.2052 173.553 67.7921C171.37 73.3789 177.956 78.2296 178.099 84.0966C178.241 89.9635 170.659 96.5039 169.117 102.262Z" fill="#B14543"/>
<path d="M233.718 14.1786H229.971C227.786 18.7062 222.758 29.6349 220.136 37.1289C216.857 46.4963 204.679 47.4331 195.312 55.8638C187.818 62.6084 177.514 89.2745 173.298 101.764C174.859 102.857 179.012 105.699 183.134 108.322C187.256 110.945 192.97 107.229 195.312 105.043C202.806 108.634 218.918 116.471 223.414 119.094C227.911 121.717 232.157 130.179 233.718 134.082L248.238 127.057C252.297 114.254 260.603 85.6524 261.352 73.662C262.289 58.674 243.554 43.6861 238.871 31.5084C235.124 21.7662 233.875 15.8959 233.718 14.1786Z" fill="#712619"/>
<path d="M242.149 40.4075C235.03 31.4147 233.562 18.8623 233.25 14.1786C229.347 17.1449 224.351 27.7614 222.009 36.1921C219.667 44.6229 208.707 50.1497 200.464 53.5219C192.22 56.8942 180.792 81.7805 177.982 93.8021C180.48 95.8317 185.195 99.3289 191.565 97.0807C199.527 94.2704 200.932 97.549 208.426 97.0807C215.92 96.6123 226.224 103.17 233.25 104.106C238.87 104.856 245.584 116.908 248.238 122.841L259.011 82.0927C263.226 63.3578 249.268 49.4003 242.149 40.4075Z" fill="#BD4C49"/>
<path d="M240.744 101.296C244.116 104.668 249.955 106.136 252.453 106.448C252.766 102.701 252.922 94.832 251.048 93.3332C248.706 91.4597 244.491 83.029 244.491 78.3451C244.491 73.6612 241.681 71.788 239.339 68.5094C236.997 65.2308 234.187 56.8005 234.187 53.0536C234.187 49.3066 231.845 52.1168 232.782 58.2057C233.718 64.2945 235.123 66.6361 236.529 69.4466C237.934 72.2572 230.44 67.5731 226.693 66.6361C222.946 65.699 222.946 60.5469 219.667 55.3948C216.389 50.2427 220.604 61.952 222.946 66.6361C225.288 71.3201 230.908 71.3195 236.529 73.193C242.149 75.0665 242.149 80.2189 244.491 87.7126C246.833 95.2062 250.111 96.6117 251.048 101.296C251.985 105.98 244.491 99.8903 240.744 96.6117C236.997 93.3331 235.592 85.8391 229.503 81.1553C223.414 76.4716 217.325 78.8135 214.983 78.3451C212.642 77.8767 211.705 71.3198 208.426 66.6361C205.148 61.9524 209.363 75.5352 213.11 80.2189C216.857 84.9027 224.351 81.624 229.503 84.4343C234.655 87.2445 236.529 97.0804 240.744 101.296Z" fill="#B14543"/>
<path d="M130.208 69.4462C124.962 74.3173 107.726 81.1556 99.7636 83.9658H95.0799V76.4722C96.6411 74.1302 99.7636 68.6969 99.7636 65.6996C99.7636 61.953 107.258 59.1422 114.752 56.3321C122.246 53.5221 126.929 48.3698 132.081 43.686C137.234 39.0023 151.753 33.85 161.589 31.9765C171.425 30.103 176.109 30.5714 182.666 31.9765C189.223 33.3816 192.97 30.5714 189.691 33.85C186.413 37.1286 179.387 33.85 167.678 33.85C155.968 33.85 141.917 40.4072 136.297 46.0275C130.676 51.6479 127.398 53.0533 117.562 59.1422C109.693 64.0132 100.544 73.6617 96.9534 77.8771C101.637 76.472 112.972 72.8186 120.84 69.4462C130.676 65.2307 133.955 60.0789 143.791 51.1797C153.627 42.2804 153.627 46.4959 163.462 46.0275C173.298 45.5592 177.514 38.0652 176.109 41.8122C174.703 45.5592 161.589 50.7113 153.627 51.1797C145.664 51.648 136.765 63.3574 130.208 69.4462Z" fill="#B14543"/>
</svg>
