<svg width="399" height="179" viewBox="0 0 399 179" fill="none" xmlns="http://www.w3.org/2000/svg">
<ellipse cx="199.423" cy="111.725" rx="199.423" ry="67.2752" fill="#333333"/>
<ellipse cx="199.423" cy="106.319" rx="199.423" ry="61.8691" fill="#C4C4C4"/>
<ellipse cx="197.02" cy="104.517" rx="162.181" ry="50.4564" fill="#F2F2F2"/>
<path d="M246.876 81.0906L270.903 27.0302C257.688 17.019 221.528 0 180.201 0C128.544 0 139.956 11.4128 113.527 12.0134C87.0973 12.6141 84.094 40.8456 78.6879 40.8456C73.2819 40.8456 63.6711 61.8691 63.6711 74.4832C63.6711 87.0973 72.0805 81.0906 73.2819 90.7013C74.4832 100.312 67.8758 95.5067 67.8758 108.121C67.8758 118.212 98.3098 127.543 113.527 130.946C123.338 127.142 144.762 119.413 151.97 118.933C159.178 118.452 218.244 93.5045 246.876 81.0906Z" fill="#DBA280"/>
<path d="M114.128 129.745C116.931 127.742 151.73 114.968 263.695 84.6943L274.507 72.0806V37.2416C270.903 33.0368 262.133 24.6272 255.886 24.6272C248.077 24.6272 251.081 27.0299 215.04 24.6272C179 22.2245 135.752 42.0467 120.134 58.2648C107.64 71.2393 110.524 111.725 114.128 129.745Z" fill="#712619"/>
<path d="M125.623 121.336C128.002 119.649 156.51 109.901 251.517 84.4008L260.691 73.776V44.4306C257.633 40.8888 250.192 33.8053 244.891 33.8053C238.265 33.8053 240.813 35.8291 210.232 33.8053C179.65 31.7815 142.953 48.478 129.701 62.1388C119.099 73.0674 122.565 106.157 125.623 121.336Z" fill="#BD4C49"/>
<path d="M290.124 32.4362C289.524 21.0235 278.711 19.2215 273.305 18.6208C270.102 23.2259 262.854 33.7577 259.49 39.0436C255.285 45.651 223.45 56.4631 210.836 63.6711C198.222 70.8792 195.218 76.2852 193.416 81.6913C191.614 87.0973 180.201 84.6946 177.198 87.698C174.195 90.7013 156.775 114.127 152.571 124.339C148.366 134.55 148.366 153.171 152.571 161.581C156.775 169.99 168.789 157.976 180.201 161.581C191.614 165.185 204.228 157.976 213.839 161.581C223.45 165.185 224.651 155.574 227.654 145.362C230.658 135.151 263.094 105.117 273.305 87.698C283.517 70.2785 290.725 43.849 290.124 32.4362Z" fill="#712619"/>
<path d="M290.124 32.4362C289.523 21.0235 278.711 21.6242 273.305 21.0235C270.102 25.6286 265.256 33.7577 261.893 39.0436C257.688 45.651 225.852 56.4631 213.238 63.6711C200.624 70.8792 197.621 76.2852 195.819 81.6913C194.017 87.0973 182.604 84.6946 179.601 87.698C176.597 90.7013 159.178 114.128 154.973 124.339C150.768 134.55 150.768 137.554 154.973 145.963C159.178 154.372 168.789 148.366 180.201 151.97C191.614 155.574 204.228 148.366 213.839 151.97C223.45 155.574 224.651 155.574 227.654 145.362C230.658 135.151 263.094 105.117 273.305 87.698C283.517 70.2785 290.725 43.849 290.124 32.4362Z" fill="#BD4C49"/>
<path d="M219.136 93.8993C220.719 87.9915 218.605 80.5653 217.35 77.5907C212.988 79.6467 204.149 84.5191 203.685 87.5609C203.106 91.3633 196.446 101.451 191.244 104.455C186.042 107.458 185.763 111.78 183.623 116.484C181.484 121.187 173.923 129.714 169.761 132.117C165.6 134.519 170.222 135.318 176.384 130.373C182.546 125.429 184.246 122.367 186.466 119.004C188.687 115.641 188.29 126.968 189.652 131.73C191.014 136.493 185.292 139.796 181.672 146.741C178.052 153.686 188.354 141.496 192.055 135.892C195.755 130.287 192.15 124.045 190.627 116.602C189.104 109.158 194.827 105.854 201.648 98.4478C208.469 91.0417 207.927 86.4991 212.529 82.4551C217.131 78.4112 215.173 90.6391 213.934 96.9029C212.695 103.167 205.273 109.533 203.976 119.299C202.678 129.065 209.183 134.326 210.165 137.227C211.146 140.128 204.465 145.373 201.365 152.018C198.265 158.662 210.648 145.271 213.447 138.106C216.247 130.941 207.8 124.72 207.617 117.196C207.435 109.672 217.158 101.284 219.136 93.8993Z" fill="#B14543"/>
<path d="M286.52 79.8893V27.0302C276.709 36.0403 252.282 57.0638 233.06 69.0772C209.034 84.094 193.416 118.332 191.614 130.946C189.812 143.56 192.815 159.779 202.426 159.779C212.037 159.779 224.05 171.191 237.866 169.389C251.681 167.587 263.694 160.379 271.503 159.779C279.312 159.178 275.708 154.973 275.708 147.765C275.708 141.999 282.916 100.112 286.52 79.8893Z" fill="#712619"/>
<path d="M288.923 79.8893L285.319 30.6342C275.508 39.6443 254.685 57.0637 235.463 69.0772C211.436 84.094 195.819 118.332 194.017 130.946C192.215 143.56 195.218 142.96 204.829 142.96C214.439 142.96 226.453 154.372 240.268 152.57C254.084 150.768 260.09 147.164 267.899 146.564C275.708 145.963 272.104 141.758 272.104 134.55C272.104 128.784 285.319 100.112 288.923 79.8893Z" fill="#BD4C49"/>
<path d="M216.886 130.984C215.303 136.892 217.417 144.318 218.672 147.293C223.034 145.237 231.873 140.364 232.336 137.322C232.916 133.52 239.576 123.432 244.778 120.429C249.98 117.425 250.259 113.103 252.398 108.4C254.538 103.696 262.099 95.1694 266.261 92.7667C270.422 90.364 265.799 89.5651 259.638 94.5098C253.476 99.4546 251.776 102.517 249.556 105.879C247.335 109.242 247.732 97.9156 246.37 93.1531C245.008 88.3907 250.73 85.087 254.35 78.1419C257.97 71.1969 247.668 83.387 243.967 88.9916C240.267 94.5961 243.871 100.838 245.395 108.282C246.918 115.725 241.195 119.029 234.374 126.435C227.553 133.842 228.095 138.384 223.493 142.428C218.891 146.472 220.849 134.244 222.088 127.98C223.327 121.717 230.749 115.35 232.046 105.584C233.344 95.8186 226.839 90.5577 225.857 87.6564C224.876 84.7551 231.557 79.5103 234.657 72.8656C237.757 66.2209 225.374 79.6124 222.575 86.7773C219.775 93.9422 228.222 100.163 228.405 107.687C228.587 115.211 218.864 123.599 216.886 130.984Z" fill="#B14543"/>
<path d="M299.735 18.0201H294.929C292.126 23.8266 285.679 37.8423 282.315 47.453C278.111 59.4664 262.493 60.6678 250.48 71.4799C240.869 80.1295 227.654 114.328 222.248 130.346C224.251 131.747 229.576 135.391 234.862 138.755C240.148 142.119 247.476 137.353 250.48 134.55C260.091 139.155 280.754 149.207 286.52 152.57C292.287 155.934 297.733 166.786 299.735 171.792L318.356 162.782C323.561 146.364 334.213 109.683 335.174 94.3054C336.376 75.0839 312.349 55.8624 306.342 40.245C301.537 27.751 299.935 20.2226 299.735 18.0201Z" fill="#712619"/>
<path d="M310.547 51.6577C301.417 40.1248 299.535 24.0269 299.134 18.0201C294.129 21.8244 287.721 35.4396 284.718 46.2517C281.715 57.0638 267.659 64.1517 257.087 68.4765C246.515 72.8013 231.859 104.717 228.255 120.134C231.459 122.737 237.505 127.222 245.674 124.339C255.886 120.735 257.688 124.94 267.299 124.339C276.909 123.738 290.124 132.148 299.134 133.349C306.342 134.31 314.952 149.767 318.356 157.376L332.171 105.117C337.577 81.0906 319.677 63.1906 310.547 51.6577Z" fill="#BD4C49"/>
<path d="M308.745 129.745C313.07 134.07 320.558 135.952 323.762 136.353C324.162 131.547 324.362 121.456 321.96 119.534C318.956 117.131 313.55 106.319 313.55 100.312C313.55 94.305 309.946 91.9027 306.943 87.698C303.94 83.4933 300.336 72.6818 300.336 67.8764C300.336 63.0711 297.332 66.6751 298.534 74.4838C299.735 82.2925 301.537 85.2955 303.339 88.8999C305.141 92.5043 295.53 86.4972 290.725 85.2955C285.919 84.0938 285.919 77.4864 281.715 70.879C277.51 64.2716 282.916 79.2884 285.919 85.2955C288.923 91.3026 296.131 91.3018 303.339 93.7045C310.547 96.1072 310.547 102.715 313.55 112.325C316.554 121.936 320.758 123.738 321.96 129.745C323.161 135.752 313.55 127.943 308.745 123.738C303.94 119.533 302.138 109.923 294.329 103.916C286.52 97.9092 278.711 100.913 275.708 100.312C272.705 99.7112 271.504 91.3022 267.299 85.2955C263.094 79.2888 268.5 96.7083 273.306 102.715C278.111 108.722 287.722 104.517 294.329 108.121C300.936 111.725 303.339 124.339 308.745 129.745Z" fill="#B14543"/>
<path d="M166.987 88.8989C160.259 95.1459 138.154 103.916 127.943 107.52H121.936V97.9094C123.939 94.9059 127.943 87.9379 127.943 84.094C127.943 79.2891 137.554 75.6843 147.164 72.0806C156.775 68.4768 162.782 61.8691 169.389 55.8624C175.997 49.8557 194.617 43.2481 207.232 40.8454C219.846 38.4427 225.852 39.0434 234.262 40.8454C242.671 42.6474 247.477 39.0434 243.272 43.2481C239.067 47.4528 230.057 43.2481 215.04 43.2481C200.024 43.2481 182.003 51.6575 174.795 58.8653C167.587 66.0732 163.383 67.8756 150.768 75.6843C140.677 81.9313 128.944 94.3051 124.339 99.7112C130.346 97.9092 144.882 93.2239 154.973 88.8989C167.587 83.4926 171.792 76.8857 184.406 65.4727C197.02 54.0598 197.02 59.466 209.634 58.8653C222.248 58.2647 227.654 48.6539 225.852 53.4593C224.05 58.2647 207.232 64.872 197.02 65.4727C186.809 66.0734 175.396 81.0902 166.987 88.8989Z" fill="#B14543"/>
</svg>
