<svg width="120" height="90" viewBox="0 0 120 90" fill="none" xmlns="http://www.w3.org/2000/svg">
<path d="M62.5 2C38.9 2 28.3333 20.3333 26 29.5C18.3333 30.3333 3 37.2 3 58C3 78.8 19.6667 86.6667 28 88H100C106 87.8333 118 83.5 118 67.5C118 51.5 106 46.8333 100 46.5V33.5C100 30.5 92 2 62.5 2Z" fill="#C2CDE7"/>
<path d="M114 80H11C13.5 82.6667 20.2 88 27 88H99.5C107.5 88 112.5 82.6667 114 80Z" fill="#ACB7D0"/>
<path fill-rule="evenodd" clip-rule="evenodd" d="M38.2449 40.5762C39.5454 39.086 41.5912 38 44.5 38C47.4783 38 49.4078 39.2307 50.551 40.9037C51.6258 42.4767 51.9044 44.2906 51.9948 45.3754L49.0052 45.6246C48.9289 44.7094 48.7075 43.5233 48.074 42.5963C47.5089 41.7693 46.5217 41 44.5 41C42.4088 41 41.2046 41.7473 40.5051 42.5488C39.7575 43.4055 39.5 44.4244 39.5 45V58C39.5 60.2707 41.3242 62.5 44 62.5C45.5366 62.5 46.7657 62.0738 47.5939 61.3249C48.3964 60.5992 49 59.4111 49 57.5H52C52 60.0889 51.1536 62.1508 49.6061 63.5501C48.0843 64.9262 46.0634 65.5 44 65.5C39.4758 65.5 36.5 61.7293 36.5 58V45C36.5 43.7423 36.9925 42.0112 38.2449 40.5762ZM56.5329 44.3832C56.9702 42.3298 59.2022 38.5 64.5 38.5C69.7978 38.5 72.0298 42.3298 72.4671 44.3832L72.5 44.5377V44.6957V59.8261V60.0033L72.4587 60.1756C71.9829 62.1614 69.673 65.5 64.5 65.5C59.327 65.5 57.0171 62.1614 56.5413 60.1756L56.5 60.0033V59.8261V52V44.6957V44.5377L56.5329 44.3832ZM59.5 44.872V52V59.621C59.792 60.5124 61.0732 62.5 64.5 62.5C67.9268 62.5 69.208 60.5124 69.5 59.621V44.872C69.1954 43.7397 67.8615 41.5 64.5 41.5C61.1385 41.5 59.8046 43.7397 59.5 44.872ZM80.4922 56.876C80.4277 56.36 80.4961 55.6007 80.8468 55.0113C81.1522 54.4981 81.7322 54 82.9999 54C84.3774 54 84.8696 54.4132 85.1051 54.7851C85.4086 55.2642 85.4995 55.99 85.5 56.9909L85.4997 56.9919C85.4967 57.0037 85.478 57.0779 85.3753 57.2273C85.2449 57.4168 85.0331 57.6495 84.7305 57.9269C84.187 58.4251 83.4748 58.958 82.691 59.5445L82.6909 59.5446L82.4 59.7625C81.5325 60.4131 80.5986 61.127 79.8824 61.8518C79.2097 62.5325 78.4999 63.4429 78.4999 64.5L78.5 67.5002L78.5002 68.5H79.5H87.5V66.5H80.5L80.4999 64.5C80.4999 64.3071 80.6651 63.905 81.305 63.2576C81.9012 62.6542 82.7174 62.0244 83.6 61.3625C83.6952 61.2911 83.7913 61.2192 83.888 61.1469L83.892 61.1439C84.6594 60.5701 85.4591 59.9721 86.082 59.4012C86.4356 59.077 86.7707 58.7277 87.0232 58.3606C87.2695 58.0024 87.5 57.537 87.5 57C87.5 56.0056 87.4404 54.7344 86.7948 53.715C86.0802 52.5868 84.8225 52 82.9999 52C81.0676 52 79.8143 52.8353 79.128 53.9887C78.487 55.066 78.4055 56.3067 78.5076 57.124L80.4922 56.876Z" fill="#8D6C9F"/>
<path d="M61.3252 2C45.7252 2 36.1585 10.6667 33.3252 15C32.3252 16.1667 30.9252 19.1 33.3252 21.5C35.7252 23.9 38.3252 22.5 39.3252 21.5C40.9918 18.1667 47.7252 11.5 61.3252 11.5C74.9252 11.5 81.9918 18.1667 83.8252 21.5C85.1585 22.3333 88.3252 23.5 90.3252 21.5C92.3252 19.5 92.1585 17 91.8252 16C88.1585 11.3333 76.9252 2 61.3252 2Z" fill="#D6DFF2"/>
<path fill-rule="evenodd" clip-rule="evenodd" d="M25.9984 40.9231C25.7593 34.7088 27.1129 25.4189 32.3174 17.7479C37.4389 10.1991 46.4286 4 61.9998 4C71.7666 4 78.78 6.49534 83.8536 10.1535C88.9415 13.8221 92.2242 18.7658 94.3387 23.8881C97.8911 32.494 98.0645 41.3692 98.0243 45H94V49H102C108.546 49 116 55.9198 116 68C116 73.7874 113.523 78.3009 110.456 81.391C108.918 82.9404 107.248 84.1125 105.709 84.8894C104.137 85.6824 102.828 86 102 86H101.97H101.939H101.907H101.873H101.838H101.802H101.765H101.726H101.687H101.646H101.604H101.561H101.516H101.471H101.424H101.376H101.327H101.277H101.225H101.173H101.119H101.064H101.009H100.951H100.893H100.834H100.773H100.712H100.649H100.585H100.521H100.455H100.388H100.319H100.25H100.18H100.108H100.036H99.9626H99.888H99.8124H99.7357H99.658H99.5793H99.4995H99.4187H99.3368H99.254H99.1701H99.0852H98.9993H98.9124H98.8245H98.7356H98.6457H98.5548H98.463H98.3702H98.2764H98.1816H98.0859H97.9892H97.8916H97.793H97.6934H97.593H97.4916H97.3892H97.286H97.1818H97.0767H96.9707H96.8637H96.7559H96.6472H96.5376H96.4271H96.3157H96.2034H96.0903H95.9763H95.8614H95.7456H95.629H95.5116H95.3933H95.2741H95.1541H95.0333H94.9116H94.7892H94.6659H94.5417H94.4168H94.2911H94.1646H94.0372H93.9091H93.7802H93.6505H93.52H93.3887H93.2567H93.1239H92.9903H92.856H92.721H92.5851H92.4486H92.3113H92.1732H92.0345H91.895H91.7548H91.6139H91.4722H91.3299H91.1868H91.0431H90.8987H90.7535H90.6077H90.4612H90.3141H90.1662H90.0177H89.8686H89.7188H89.5683H89.4172H89.2654H89.113H88.96H88.8063H88.652H88.4971H88.3416H88.1854H88.0287H87.8713H87.7134H87.5549H87.3957H87.236H87.0757H86.9149H86.7534H86.5914H86.4289H86.2658H86.1021H85.9379H85.7731H85.6078H85.442H85.2756H85.1087H84.9413H84.7734H84.605H84.436H84.2666H84.0967H83.9262H83.7553H83.5839H83.412H83.2397H83.0668H82.8936H82.7198H82.5456H82.3709H82.1958H82.0203H81.8443H81.6679H81.491H81.3138H81.1361H80.958H80.7794H80.6005H80.4212H80.2415H80.0613H79.8808H79.7H79.5187H79.337H79.155H78.9727H78.7899H78.6068H78.4234H78.2396H78.0555H77.871H77.6862H77.5011H77.3156H77.1298H76.9437H76.7573H76.5706H76.3836H76.1963H76.0087H75.8208H75.6327H75.4442H75.2555H75.0665H74.8773H74.6878H74.498H74.308H74.1177H73.9272H73.7365H73.5455H73.3543H73.1628H72.9712H72.7793H72.5873H72.395H72.2025H72.0098H71.8169H71.6239H71.4307H71.2372H71.0436H70.8499H70.656H70.4619H70.2676H70.0733H69.8787H69.684H69.4892H69.2943H69.0992H68.904H68.7087H68.5133H68.3177H68.1221H67.9263H67.7305H67.5346H67.3385H67.1424H66.9463H66.75H66.5537H66.3573H66.1608H65.9643H65.7678H65.5712H65.3746H65.1779H64.9812H64.7844H64.5877H64.3909H64.1941H63.9973H63.8005H63.6037H63.4069H63.2101H63.0133H62.8166H62.6198H62.4231H62.2264H62.0298H61.8332H61.6366H61.4401H61.2437H61.0473H60.8509H60.6547H60.4585H60.2624H60.0664H59.8704H59.6746H59.4788H59.2831H59.0876H58.8921H58.6968H58.5016H58.3065H58.1115H57.9167H57.722H57.5275H57.3331H57.1388H56.9447H56.7508H56.557H56.3634H56.1699H55.9767H55.7836H55.5907H55.398H55.2055H55.0132H54.8211H54.6292H54.4375H54.2461H54.0549H53.8639H53.6731H53.4825H53.2923H53.1022H52.9124H52.7229H52.5336H52.3446H52.1558H51.9673H51.7791H51.5912H51.4036H51.2162H51.0292H50.8425H50.656H50.4699H50.2841H50.0986H49.9134H49.7286H49.5441H49.3599H49.1761H48.9926H48.8095H48.6267H48.4443H48.2622H48.0805H47.8992H47.7183H47.5377H47.3576H47.1778H46.9984H46.8195H46.6409H46.4627H46.285H46.1077H45.9308H45.7543H45.5783H45.4026H45.2275H45.0528H44.8785H44.7047H44.5314H44.3585H44.1861H44.0141H43.8427H43.6717H43.5012H43.3312H43.1617H42.9927H42.8242H42.6562H42.4888H42.3218H42.1554H41.9895H41.8242H41.6593H41.4951H41.3313H41.1681H41.0055H40.8434H40.6819H40.521H40.3607H40.2009H40.0417H39.8831H39.7251H39.5676H39.4108H39.2546H39.099H38.944H38.7897H38.6359H38.4828H38.3304H38.1785H38.0273H37.8768H37.7269H37.5776H37.4291H37.2811H37.1339H36.9873H36.8414H36.6962H36.5517H36.4079H36.2648H36.1223H35.9806H35.8396H35.6993H35.5597H35.4209H35.2828H35.1454H35.0087H34.8728H34.7377H34.6033H34.4696H34.3368H34.2046H34.0733H33.9427H33.8129H33.6839H33.5557H33.4282H33.3016H33.1758H33.0508H32.9265H32.8032H32.6806H32.5588H32.4379H32.3178H32.1986H32.0802H31.9626H31.8459H31.7301H31.6151H31.501H31.3877H31.2753H31.1638H31.0532H30.9435H30.8347H30.7267H30.6197H30.5136H30.4084H30.3041H30.2007H30.0983H29.9968H29.8962H29.7965H29.6978H29.6001H29.5033H29.4075H29.3126H29.2187H29.1257H29.0338H28.9428H28.8528H28.7638H28.6757H28.5887H28.5027H28.4177H28.3337H28.2507H28.1688H28.0878H28.0079H27.9291H27.8512H27.7744H27.6987H27.624H27.5504H27.4778H27.4063H27.3359H27.2666H27.1983H27.1311H27.065H27C21.4678 86 15.7303 82.9929 11.3198 77.9355C6.92658 72.8979 4 65.9822 4 58.5C4 48.8798 7.9584 42.6735 12.4811 38.8378C15.9557 35.891 19.7416 34.3597 22.3493 33.7799C22.0068 36.4477 21.9189 38.9332 22.0013 41.0769L25.9984 40.9231ZM102.027 45C111.47 45.018 120 54.493 120 68C120 75.0126 116.977 80.4991 113.294 84.209C111.457 86.0596 109.439 87.4875 107.51 88.4606C105.613 89.4176 103.672 90 102 90H101.97H101.939H101.907H101.873H101.838H101.802H101.765H101.726H101.687H101.646H101.604H101.561H101.516H101.471H101.424H101.376H101.327H101.277H101.225H101.173H101.119H101.064H101.009H100.951H100.893H100.834H100.773H100.712H100.649H100.585H100.521H100.455H100.388H100.319H100.25H100.18H100.108H100.036H99.9626H99.888H99.8124H99.7357H99.658H99.5793H99.4995H99.4187H99.3368H99.254H99.1701H99.0852H98.9993H98.9124H98.8245H98.7356H98.6457H98.5548H98.463H98.3702H98.2764H98.1816H98.0859H97.9892H97.8916H97.793H97.6934H97.593H97.4916H97.3892H97.286H97.1818H97.0767H96.9707H96.8637H96.7559H96.6472H96.5376H96.4271H96.3157H96.2034H96.0903H95.9763H95.8614H95.7456H95.629H95.5116H95.3933H95.2741H95.1541H95.0333H94.9116H94.7892H94.6659H94.5417H94.4168H94.2911H94.1646H94.0372H93.9091H93.7802H93.6505H93.52H93.3887H93.2567H93.1239H92.9903H92.856H92.721H92.5851H92.4486H92.3113H92.1732H92.0345H91.895H91.7548H91.6139H91.4722H91.3299H91.1868H91.0431H90.8987H90.7535H90.6077H90.4612H90.3141H90.1662H90.0177H89.8686H89.7188H89.5683H89.4172H89.2654H89.113H88.96H88.8063H88.652H88.4971H88.3416H88.1854H88.0287H87.8713H87.7134H87.5549H87.3957H87.236H87.0757H86.9149H86.7534H86.5914H86.4289H86.2658H86.1021H85.9379H85.7731H85.6078H85.442H85.2756H85.1087H84.9413H84.7734H84.605H84.436H84.2666H84.0967H83.9262H83.7553H83.5839H83.412H83.2397H83.0668H82.8936H82.7198H82.5456H82.3709H82.1958H82.0203H81.8443H81.6679H81.491H81.3138H81.1361H80.958H80.7794H80.6005H80.4212H80.2415H80.0613H79.8808H79.7H79.5187H79.337H79.155H78.9727H78.7899H78.6068H78.4234H78.2396H78.0555H77.871H77.6862H77.5011H77.3156H77.1298H76.9437H76.7573H76.5706H76.3836H76.1963H76.0087H75.8208H75.6327H75.4442H75.2555H75.0665H74.8773H74.6878H74.498H74.308H74.1177H73.9272H73.7365H73.5455H73.3543H73.1628H72.9712H72.7793H72.5873H72.395H72.2025H72.0098H71.8169H71.6239H71.4307H71.2372H71.0436H70.8499H70.656H70.4619H70.2676H70.0733H69.8787H69.684H69.4892H69.2943H69.0992H68.904H68.7087H68.5133H68.3177H68.1221H67.9263H67.7305H67.5346H67.3385H67.1424H66.9463H66.75H66.5537H66.3573H66.1608H65.9643H65.7678H65.5712H65.3746H65.1779H64.9812H64.7844H64.5877H64.3909H64.1941H63.9973H63.8005H63.6037H63.4069H63.2101H63.0133H62.8166H62.6198H62.4231H62.2264H62.0298H61.8332H61.6366H61.4401H61.2437H61.0473H60.8509H60.6547H60.4585H60.2624H60.0664H59.8704H59.6746H59.4788H59.2831H59.0876H58.8921H58.6968H58.5016H58.3065H58.1115H57.9167H57.722H57.5275H57.3331H57.1388H56.9447H56.7508H56.557H56.3634H56.1699H55.9767H55.7836H55.5907H55.398H55.2055H55.0132H54.8211H54.6292H54.4375H54.2461H54.0549H53.8639H53.6731H53.4825H53.2923H53.1022H52.9124H52.7229H52.5336H52.3446H52.1558H51.9673H51.7791H51.5912H51.4036H51.2162H51.0292H50.8425H50.656H50.4699H50.2841H50.0986H49.9134H49.7286H49.5441H49.3599H49.1761H48.9926H48.8095H48.6267H48.4443H48.2622H48.0805H47.8992H47.7183H47.5377H47.3576H47.1778H46.9984H46.8195H46.6409H46.4627H46.285H46.1077H45.9308H45.7543H45.5783H45.4026H45.2275H45.0528H44.8785H44.7047H44.5314H44.3585H44.1861H44.0141H43.8427H43.6717H43.5012H43.3312H43.1617H42.9927H42.8242H42.6562H42.4888H42.3218H42.1554H41.9895H41.8242H41.6593H41.4951H41.3313H41.1681H41.0055H40.8434H40.6819H40.521H40.3607H40.2009H40.0417H39.8831H39.7251H39.5676H39.4108H39.2546H39.099H38.944H38.7897H38.6359H38.4828H38.3304H38.1785H38.0273H37.8768H37.7269H37.5776H37.4291H37.2811H37.1339H36.9873H36.8414H36.6962H36.5517H36.4079H36.2648H36.1223H35.9806H35.8396H35.6993H35.5597H35.4209H35.2828H35.1454H35.0087H34.8728H34.7377H34.6033H34.4696H34.3368H34.2046H34.0733H33.9427H33.8129H33.6839H33.5557H33.4282H33.3016H33.1758H33.0508H32.9265H32.8032H32.6806H32.5588H32.4379H32.3178H32.1986H32.0802H31.9626H31.8459H31.7301H31.6151H31.501H31.3877H31.2753H31.1638H31.0532H30.9435H30.8347H30.7267H30.6197H30.5136H30.4084H30.3041H30.2007H30.0983H29.9968H29.8962H29.7965H29.6978H29.6001H29.5033H29.4075H29.3126H29.2187H29.1257H29.0338H28.9428H28.8528H28.7638H28.6757H28.5887H28.5027H28.4177H28.3337H28.2507H28.1688H28.0878H28.0079H27.9291H27.8512H27.7744H27.6987H27.624H27.5504H27.4778H27.4063H27.3359H27.2666H27.1983H27.1311H27.065H27C20.0322 90 13.2697 86.2571 8.30518 80.5645C3.32342 74.8521 0 67.0178 0 58.5C0 47.6202 4.5416 40.3265 9.89388 35.7872C14.4573 31.917 19.6429 30.0239 23.0788 29.5956C24.1108 24.9345 25.9593 19.9947 29.0073 15.5021C34.9108 6.80085 45.171 0 61.9998 0C72.4831 0 80.3447 2.69216 86.193 6.90897C92.027 11.1154 95.713 16.7342 98.0361 22.3619C101.883 31.6818 102.071 41.2539 102.027 45Z" fill="#8D6C9F"/>
</svg>
