<svg width="120" height="110" viewBox="0 0 120 110" fill="none" xmlns="http://www.w3.org/2000/svg">
<ellipse cx="60" cy="97.311" rx="60" ry="6.54545" fill="#EB5757"/>
<path d="M28.1001 89.3163L82.6447 97.0553L90.5453 97.055C90.8225 91.2179 89.3025 89.7362 81.0938 88.5715L36.27 82.2117C19.8527 79.8824 16.6339 91.1786 17.0767 97.1179C18.951 94.262 25.5079 88.9485 28.1001 89.3163Z" fill="#F2C94C"/>
<path d="M29.0814 66.8677L86.8663 75.0664C87.9707 73.754 91.3677 71.2977 96.1201 71.972C102.061 72.8149 108.702 80.3682 108.165 84.1485C107.629 87.9288 99.7619 89.0163 93.8214 88.1734C87.8809 87.3306 87.4138 82.8569 83.0934 82.244L32.3291 75.0414C27.4687 74.3518 26.3156 78.5955 18.755 77.5228C11.1943 76.45 5.56034 73.447 6.0967 69.6667C6.63306 65.8864 18.3535 60.9383 22.6738 61.5513C26.1301 62.0417 28.3857 65.2999 29.0814 66.8677Z" fill="#B77748"/>
<path d="M44.5347 93.8526L65.5965 96.8409C71.6343 91.8211 82.5531 82.1683 83.7024 74.0676C85.005 64.8868 80.1358 28.0191 77.5461 8.73681L57.0243 5.82513C49.2753 22.9059 33.5015 59.0118 32.3981 66.7884C31.2947 74.5651 40.0294 88.0715 44.5347 93.8526Z" fill="#FFF1E4"/>
<path d="M48.5675 68.5311C53.1272 61.2448 52.2356 32.3237 51.2199 18.7739C44.214 33.2056 33.822 55.9715 32.2896 66.7724C31.3701 73.253 34.9765 80.1921 36.7013 82.2732C38.7568 80.7284 44.0079 75.8174 48.5675 68.5311Z" fill="#D68F53"/>
<path d="M68.1179 71.3049C65.765 63.0378 74.6662 35.5062 79.411 22.7737C82.1259 38.5846 85.7751 63.3427 84.2426 74.1436C83.3231 80.6242 77.9288 86.2862 75.6932 87.8054C74.1485 85.7498 70.4708 79.5719 68.1179 71.3049Z" fill="#D68F53"/>
<path d="M57.0245 5.82332L67.2854 7.27916L78.6263 8.88825C80.7865 9.19474 84.4173 14.6681 84.0341 17.3684C83.651 20.0686 79.495 29.9464 75.7146 29.41L54.1128 26.3451C49.7924 25.7321 49.1647 14.6247 49.4712 12.4645C49.7777 10.3043 54.3243 5.4402 57.0245 5.82332Z" fill="#333333"/>
<path d="M56.2583 11.2238L66.5191 12.6796L77.8601 14.2887C80.0203 14.5952 84.1108 16.8283 83.7277 19.5286C83.3445 22.2288 79.495 29.9464 75.7146 29.41L54.1128 26.3451C49.7924 25.7321 48.8582 16.7848 49.1647 14.6247C49.4712 12.4645 53.558 10.8407 56.2583 11.2238Z" fill="#4F4F4F"/>
<path fill-rule="evenodd" clip-rule="evenodd" d="M77.7443 63.6395L72.8527 57.1303L70.4544 58.9326L75.346 65.4418L68.8368 70.3335L70.6391 72.7318L77.1483 67.8401L82.0399 74.3493L84.4382 72.5471L79.5466 66.0378L86.0558 61.1462L84.2535 58.7479L77.7443 63.6395Z" fill="black"/>
<path fill-rule="evenodd" clip-rule="evenodd" d="M42.0362 58.5739L37.1446 52.0647L34.7463 53.8669L39.6379 60.3762L33.1287 65.2678L34.931 67.6661L41.4402 62.7744L46.3318 69.2837L48.7301 67.4814L43.8385 60.9722L50.3477 56.0805L48.5454 53.6822L42.0362 58.5739Z" fill="black"/>
<circle cx="74.7037" cy="21.0036" r="2.72727" transform="rotate(-171.925 74.7037 21.0036)" fill="#828282"/>
<circle cx="56.3423" cy="18.398" r="2.72727" transform="rotate(-171.925 56.3423 18.398)" fill="#828282"/>
</svg>
