<svg width="121" height="36" viewBox="0 0 121 36" fill="none" xmlns="http://www.w3.org/2000/svg">
<path fill-rule="evenodd" clip-rule="evenodd" d="M72.1973 1.08065C71.9125 1.20619 71.6911 1.61301 71.6261 2.13044C71.6003 2.33492 71.5338 2.68688 71.4785 2.91299C71.4228 3.13879 71.3205 3.59254 71.2514 3.92134C71.1819 4.24984 71.0664 4.78769 70.9942 5.11619C70.9223 5.44499 70.8074 5.98254 70.7388 6.31134C70.6702 6.63984 70.5812 7.0433 70.5409 7.20755C70.5009 7.3718 70.4356 7.69116 70.3962 7.91696C70.3568 8.14307 70.2801 8.49595 70.2263 8.70134C70.1721 8.90673 70.0717 9.34371 70.0031 9.67221C69.9345 10.001 69.8343 10.4377 69.7808 10.6431C69.727 10.8485 69.61 11.3528 69.5206 11.7636C69.4313 12.1744 69.314 12.6784 69.2595 12.8838C69.2051 13.0892 69.1239 13.4253 69.0788 13.6307C69.0339 13.836 68.9714 14.1219 68.9401 14.2657C68.9085 14.4095 68.8447 14.5942 68.7981 14.6765C68.7515 14.7585 68.6267 15.0443 68.5205 15.3112C68.2781 15.921 67.2184 18.0051 66.9332 18.4332C66.8156 18.61 66.7194 18.7699 66.7194 18.7888C66.7194 18.8873 65.4082 20.6699 65.2184 20.8293C65.1165 20.9152 65.0909 20.9094 65.0431 20.7906C64.9345 20.5221 64.9886 17.779 65.1165 17.0665C65.1826 16.6969 65.2759 16.1422 65.3234 15.8342C65.3709 15.5261 65.453 15.005 65.5054 14.6765C65.5577 14.3477 65.6386 13.8269 65.6852 13.5188C65.7316 13.2107 65.8173 12.7354 65.8759 12.4623C65.9343 12.1896 65.9821 11.8459 65.9821 11.6984C65.9821 11.5512 66.0297 11.1694 66.088 10.85C66.1461 10.5309 66.233 9.98395 66.2811 9.63503C66.5648 7.56957 66.8559 6.03007 67.0505 5.56445C67.1023 5.44103 67.2151 5.10491 67.3014 4.81755C68.078 2.22948 68.0735 1.38964 67.2815 1.2391C66.7669 1.14129 66.2032 1.65445 66.2032 2.22095C66.2032 2.30353 66.1536 2.5141 66.0925 2.68901C66.0318 2.86362 65.9821 3.08973 65.9821 3.19182C65.9821 3.2936 65.9337 3.60046 65.8747 3.87319C65.6816 4.76666 65.466 6.00783 65.4642 6.23668C65.4624 6.49174 65.2193 7.462 65.1017 7.68476C65.0587 7.76612 65.0226 7.8935 65.0211 7.96816C65.0199 8.04282 64.9546 8.23815 64.8761 8.4027C64.7979 8.56695 64.7327 8.7437 64.7311 8.79581C64.7299 8.84761 64.6981 8.94848 64.6605 9.01978C64.5453 9.23797 64.1082 10.261 64.0396 10.4727C63.9759 10.6693 64.1199 10.7065 64.2189 10.5194C64.267 10.4282 64.3681 10.2865 64.4439 10.2043C64.5194 10.1223 64.5814 10.0287 64.5814 9.99675C64.5814 9.96445 64.6343 9.95896 64.699 9.98425C64.8367 10.0376 64.7922 10.6291 64.6117 11.1471C64.5546 11.3117 64.5077 11.5314 64.5077 11.6356C64.5077 11.7398 64.4604 11.9961 64.4027 12.2051C64.3446 12.4142 64.2255 12.9212 64.1374 13.332C64.0493 13.7428 63.9307 14.2276 63.8739 14.4095C63.817 14.5915 63.7704 14.8331 63.7704 14.9462C63.7704 15.0595 63.7325 15.2466 63.6859 15.3624C63.6396 15.4779 63.5779 15.7239 63.5493 15.9088C63.5208 16.0935 63.4453 16.5137 63.3818 16.8425C63.0049 18.7925 63.0389 21.3809 63.4531 22.2948C64.2093 23.9628 65.7192 23.4972 67.0884 21.1743C67.1853 21.01 67.2864 20.8589 67.3134 20.8381C67.3402 20.8177 67.4154 20.6958 67.4804 20.5672C67.6202 20.2902 67.961 19.8673 68.044 19.8673C68.0762 19.8673 68.1268 20.161 68.1562 20.52C68.1857 20.8787 68.2561 21.2392 68.3123 21.3208C68.3689 21.4022 68.4149 21.5226 68.4149 21.5878C68.4149 22.0504 69.6379 22.5151 70.13 22.2396C70.8688 21.8261 71.3533 21.3931 72.0806 20.4962C72.5682 19.8953 73.3545 18.7964 73.3545 18.7157C73.3545 18.6682 73.38 18.6685 73.4276 18.7166C73.4679 18.7574 73.513 19.2944 73.528 19.9102C73.5485 20.7595 73.5843 21.0868 73.676 21.2663C73.7422 21.3964 73.7966 21.5543 73.7966 21.617C73.7966 21.9148 74.5727 22.5324 75.0651 22.6266C75.6059 22.7299 76.4938 22.6412 76.8611 22.4471C76.9802 22.3843 77.1216 22.3328 77.1754 22.3325C77.6028 22.3304 79.0611 21.0847 79.7989 20.0912C80.5846 19.0335 80.5476 19.061 80.624 19.4726C80.9136 21.0365 82.109 21.7276 83.4354 21.0984C84.4043 20.6385 84.6982 20.1894 83.8262 20.5011C82.8396 20.8537 82.1787 20.595 81.9859 19.7807C81.8713 19.2971 82.0921 17.1466 82.4597 15.1619C82.5168 14.8538 82.5974 14.4169 82.639 14.1911C82.7337 13.673 82.8931 13.0029 83.0474 12.473C83.6992 10.2347 83.6704 9.62894 82.9003 9.41045C81.9859 9.15112 81.6713 9.62437 81.3862 11.6889C81.3465 11.9763 81.2827 12.2956 81.2445 12.3983C81.2063 12.501 81.1528 12.7195 81.1254 12.8838C81.098 13.0483 81.0412 13.2497 80.999 13.332C80.9566 13.4143 80.8968 13.599 80.8661 13.7428C80.7984 14.0588 80.6011 14.6646 80.4606 14.9864C80.4041 15.1159 80.3581 15.2576 80.3581 15.3015C80.3581 15.3451 80.3045 15.5081 80.2393 15.6635C80.174 15.8189 80.0792 16.0469 80.0287 16.1703C79.3041 17.9411 78.3133 19.3815 77.2521 20.2073C76.4983 20.7943 75.5262 20.9661 75.3749 20.5395C75.2633 20.2247 75.247 18.7014 75.3502 18.2242C75.3902 18.0392 75.4504 17.6674 75.4844 17.398C75.5181 17.1287 75.5836 16.8367 75.6297 16.7496C75.6757 16.6621 75.7136 16.5116 75.7136 16.415C75.7136 16.3181 75.7677 16.0386 75.8339 15.7936C75.9001 15.5489 75.981 15.1973 76.0132 15.0126C76.0456 14.8276 76.1094 14.5083 76.1551 14.3029C76.2006 14.0975 76.2712 13.7781 76.3121 13.5935C76.3527 13.4085 76.4168 13.0629 76.4544 12.8253C76.52 12.413 76.6608 11.8739 76.8295 11.39C77.1411 10.4956 77.0043 9.90137 76.4288 9.65027C75.8246 9.38668 75.2446 9.77247 75.0482 10.5684C74.622 12.2953 74.4632 12.8161 74.1573 13.4896C74.0806 13.6584 74.0177 13.8263 74.0177 13.8632C74.0174 13.9311 73.3349 15.4085 73.2104 15.6099C73.1722 15.6717 73.0525 15.8902 72.9442 16.0956C72.3697 17.1863 70.8149 19.3934 70.3162 19.8261L70.0001 20.101L69.9477 19.8161C69.8954 19.5312 70.0497 17.4209 70.1899 16.5064C70.4663 14.6987 70.5953 14.0201 70.7144 13.7428C70.7587 13.6401 70.8209 13.4384 70.8531 13.2945C70.8853 13.151 70.9656 12.8652 71.0318 12.6598C71.0977 12.4544 71.1966 12.1183 71.2517 11.9129C71.3064 11.7075 71.4012 11.3546 71.4622 11.1288C71.5236 10.9027 71.6108 10.5498 71.6565 10.3444C71.7022 10.1391 71.7901 9.76942 71.852 9.52289C71.914 9.27637 72.013 8.86041 72.0722 8.59834C72.1312 8.33627 72.2118 8.06141 72.2509 7.98705C72.2903 7.913 72.3222 7.7515 72.3222 7.62808C72.3222 7.50497 72.3577 7.30994 72.4007 7.19475C72.4771 6.9915 72.629 6.35979 72.7661 5.67628C72.8031 5.49162 72.881 5.1555 72.9394 4.92939C73.0889 4.34827 73.2089 3.84242 73.3202 3.32376C73.3731 3.07724 73.4516 2.74112 73.4943 2.57687C73.7975 1.41189 73.1475 0.661946 72.1973 1.08065ZM88.2463 3.78513C88.2463 3.8543 88.1834 4.11484 88.1067 4.36411C87.9723 4.8011 87.8965 5.15855 87.6892 6.33724C87.636 6.63923 87.5382 6.94701 87.4717 7.02136C87.3785 7.12589 87.3623 7.23437 87.4008 7.494C87.4287 7.68476 87.4158 7.93891 87.3701 8.07939C87.3262 8.21621 87.2582 8.58006 87.2194 8.88814C87.1806 9.19622 87.1159 9.63321 87.0759 9.85901C86.9661 10.4776 86.8476 11.2349 86.7369 12.025C86.6822 12.4151 86.6006 12.9697 86.5555 13.2574C86.5107 13.545 86.4265 14.0826 86.3684 14.4522C86.3104 14.8222 86.2244 15.427 86.1771 15.7967C86.1299 16.1663 86.0436 16.8218 85.9855 17.2533C85.4495 21.237 86.1853 23.2943 88.0989 23.1605C89.0386 23.0947 90.6827 21.3787 91.1513 19.9742C91.2048 19.8142 91.4813 19.4559 91.5159 19.5019C91.5279 19.518 91.6299 19.7134 91.7423 19.9361C91.8548 20.1586 91.9854 20.3826 92.032 20.4338C92.0786 20.4847 92.1999 20.637 92.3012 20.7717C93.2322 22.0107 94.8594 22.6229 96.6476 22.4072C97.0714 22.356 97.4697 22.2865 97.5322 22.253C97.7272 22.1485 98.4827 21.8093 98.5209 21.8093C98.6605 21.8093 99.5773 21.0959 99.9945 20.6629C100.577 20.058 101.17 19.195 101.002 19.195C100.968 19.195 100.928 19.2203 100.914 19.2511C100.901 19.2819 100.8 19.3575 100.691 19.419C100.581 19.4809 100.316 19.6533 100.101 19.8024C97.8273 21.3812 95.3906 21.3836 93.8689 19.8088C93.3783 19.3014 93.2797 19.1496 92.9614 18.4168C92.3915 17.1034 92.8282 14.7393 93.8861 13.4103C95.6123 11.2419 97.7076 10.8634 98.5739 12.5635C99.0058 13.4113 98.4737 14 96.7983 14.529C96.4536 14.6381 96.0466 14.7743 95.8935 14.8325C95.7407 14.8904 95.5251 14.9392 95.4144 14.9404C95.3037 14.9419 95.1301 14.9913 95.0288 15.0498C94.9274 15.1086 94.7617 15.158 94.6603 15.1598C94.5589 15.1613 94.3779 15.2146 94.2581 15.278C94.1381 15.3411 93.8978 15.4127 93.7236 15.4371C93.114 15.5215 93.4262 15.6821 94.2037 15.6836C94.4597 15.6842 94.891 15.7193 95.1623 15.7616C96.2094 15.9247 98.6343 15.5727 99.2934 15.1619C100.228 14.5793 100.722 13.2327 100.309 12.3938C100.243 12.2603 100.189 12.0976 100.189 12.0314C100.189 11.6749 99.1376 10.4331 98.6006 10.1558C95.0886 8.34176 90.4014 13.1355 91.0701 17.8576L91.1293 18.2754L90.6706 18.9022C89.697 20.2326 88.5191 21.3611 88.1043 21.3611C87.5418 21.3611 87.4393 19.3401 87.8155 15.6848C87.8601 15.2533 87.9097 14.3964 87.9262 13.7803C87.9425 13.1641 87.9882 12.2566 88.0276 11.7636C88.067 11.2705 88.1362 10.1445 88.1813 9.26143C88.2736 7.45134 88.2676 7.46901 88.8003 7.46901C89.127 7.46901 89.6434 7.38917 90.5046 7.20542C90.5909 7.18683 90.6782 7.1076 90.6986 7.02868C90.7476 6.83852 90.3389 6.77514 89.2696 6.80714C88.2766 6.837 88.3528 6.97626 88.3831 5.18475C88.4015 4.10601 88.3855 3.65988 88.3278 3.65988C88.283 3.65988 88.2463 3.71626 88.2463 3.78513ZM112.552 9.40923C109.561 10.4886 108.649 13.7452 110.99 14.9904C111.36 15.1872 112.09 15.3652 112.759 15.4219C117.457 15.8192 119.645 19.6533 117.298 23.3768C116.576 24.5232 114.54 26.4531 113.249 27.2149C112.228 27.8174 112.009 27.9408 111.838 28.0121C111.736 28.0542 111.454 28.1867 111.211 28.3065C110.74 28.5387 109.45 29.054 109.34 29.054C109.304 29.054 109.179 29.1043 109.063 29.1655C108.947 29.2271 108.792 29.2773 108.718 29.2776C108.644 29.278 108.514 29.316 108.428 29.3627C108.263 29.4523 108.002 29.5251 106.308 29.9538C106.126 30.0002 105.861 30.0739 105.719 30.1178C105.482 30.1912 105.112 30.2683 104.023 30.4713C103.8 30.513 103.385 30.5956 103.102 30.6553C102.183 30.8479 100.03 31.1715 97.8673 31.4421C97.2579 31.5183 96.6609 31.5963 94.9551 31.8234C93.8933 31.9648 92.6035 32.1068 91.6007 32.193C91.0737 32.2381 90.2276 32.3198 89.7207 32.374C89.2139 32.4283 88.3681 32.4804 87.8408 32.4901C86.0836 32.5215 85.3343 32.5885 85.3343 32.7138C85.3343 32.7921 85.4011 32.821 85.5554 32.8101C85.6772 32.8012 86.9048 32.7747 88.2833 32.751C89.6618 32.7272 90.9028 32.6769 91.0409 32.6388C91.179 32.601 91.3185 32.5867 91.351 32.6068C91.4118 32.6449 92.5548 32.566 94.6603 32.378C95.3293 32.3185 96.142 32.2506 96.4665 32.2274C96.7908 32.2043 97.2886 32.1519 97.5723 32.111C97.8562 32.0702 98.4533 32.0065 98.8993 31.9696C100.359 31.8487 102.283 31.611 103.507 31.4007C103.852 31.3413 104.333 31.263 104.576 31.2261C105.347 31.1097 105.965 30.9905 106.345 30.8854C106.548 30.8293 106.88 30.7461 107.083 30.7007C107.285 30.655 107.65 30.5663 107.894 30.5039C108.137 30.4411 108.502 30.3479 108.704 30.2964C108.907 30.2446 109.156 30.1647 109.257 30.1184C109.359 30.0721 109.686 29.9608 109.985 29.8713C110.283 29.7817 110.615 29.6622 110.722 29.6058C110.829 29.5492 110.955 29.5028 111.002 29.5025C111.05 29.5022 111.182 29.4544 111.297 29.3962C111.412 29.3377 111.655 29.2322 111.838 29.1612C115.064 27.9109 118.361 24.8709 119.286 22.2948C120.344 19.3483 118.849 15.9682 115.892 14.6171C115.122 14.2651 114.27 13.9671 114.033 13.9665C113.054 13.9649 111.524 13.5356 111.398 13.2272C110.995 12.2411 111.817 11.2126 113.46 10.6473C114.989 10.1214 116.577 11.099 116.156 12.3075C116.098 12.4733 116.07 12.6275 116.092 12.6503C116.142 12.7006 116.556 12.3145 116.556 12.2179C116.556 12.1798 116.611 12.0875 116.677 12.0128C117.028 11.6207 116.79 10.6336 116.191 9.98883C115.567 9.31842 113.651 9.01308 112.552 9.40923ZM8.83634 9.59572C8.81679 9.61553 8.55962 9.66612 8.26424 9.70847C7.55197 9.81086 6.80361 10.054 5.71355 10.5367C4.48602 11.0804 1.99067 13.1992 1.99067 13.6974C1.99067 13.7663 1.67334 14.2218 1.60356 14.2532C1.57318 14.2669 1.54821 14.3087 1.54821 14.3465C1.54821 14.384 1.43602 14.6582 1.29856 14.9562C0.803759 16.0304 0.73157 16.2836 0.615766 17.3514C0.520717 18.226 1.03086 20.0397 1.52295 20.577C1.59845 20.659 1.71696 20.8162 1.78644 20.9262C2.7613 22.4657 6.612 23.5365 9.10495 22.9612C11.027 22.5175 12.6846 21.7407 13.6757 20.8192C13.7973 20.7062 13.9555 20.5947 14.0268 20.5712C14.0984 20.5477 14.1381 20.4974 14.1146 20.4594C14.0538 20.3597 13.8307 20.374 13.5894 20.4929C13.1536 20.708 12.8483 20.8308 12.3487 20.9926C12.0647 21.0844 11.7164 21.2008 11.5744 21.251C9.29805 22.0558 5.93132 21.955 4.02191 21.0243C3.37792 20.7108 2.28545 19.6777 2.28545 19.3827C2.28545 19.3571 2.22318 19.1953 2.14739 19.0229C1.09583 16.6368 2.93395 13.2558 6.12803 11.7011C6.43725 11.5506 6.73743 11.4275 6.79519 11.4275C6.85324 11.4275 6.93204 11.3958 6.97055 11.3574C7.16606 11.1614 8.90552 10.8908 9.58411 10.9509C12.4485 11.2038 13.18 13.6718 10.7491 14.8816C9.78503 15.3612 7.72162 15.91 6.88482 15.9091C6.71788 15.9088 6.40296 15.9448 6.18428 15.989C5.96591 16.0332 5.32553 16.092 4.76125 16.1197C3.7148 16.1712 3.35626 16.2943 3.95784 16.3958C4.11244 16.4217 4.33864 16.4762 4.46016 16.5168C5.85883 16.9833 9.64847 16.8191 10.9112 16.237C11.7029 15.872 11.8617 15.7891 12.1643 15.5812C12.5391 15.324 13.1951 14.6606 13.199 14.5351C13.2002 14.4897 13.2655 14.3178 13.344 14.1536C13.7344 13.3348 13.3762 11.8757 12.5553 10.9399C12.3565 10.7132 11.714 10.2323 11.6099 10.2323C11.5597 10.2323 11.4794 10.1842 11.431 10.1253C11.3828 10.0662 11.2375 9.99522 11.1088 9.96719C10.9798 9.93915 10.8411 9.89009 10.8005 9.85779C10.6146 9.70969 8.94372 9.48693 8.83634 9.59572ZM105.719 10.1997C104.319 10.4423 103.078 11.2571 102.844 12.0869C102.7 12.597 102.602 13.4963 102.659 13.7888L102.715 14.0789L102.789 13.8549C102.829 13.7315 102.9 13.5804 102.946 13.5188C102.992 13.4573 103.112 13.2437 103.213 13.0441C103.657 12.1667 104.517 11.7261 105.783 11.7261C107.279 11.7261 107.88 12.3447 107.38 13.3695C107.239 13.6593 107.057 14.06 106.974 14.2657C106.933 14.3684 106.866 14.5028 106.825 14.5644C105.596 16.4458 104.421 18.9101 104.24 19.9873C103.966 21.6146 105.289 22.6504 106.768 21.9678C106.957 21.8806 107.128 21.8093 107.148 21.8093C107.232 21.8093 108.121 21.2489 108.321 21.0694C109.073 20.396 109.644 19.7112 110.197 18.8178C110.528 18.2839 110.481 17.8844 110.134 18.2802C109.918 18.5258 108.744 19.4879 108.407 19.6948C107.657 20.1552 106.65 20.5395 106.194 20.5395C105.697 20.5395 106.365 18.8156 107.867 16.2239C108.064 15.8838 108.225 15.5602 108.225 15.5048C108.225 15.4496 108.275 15.3624 108.336 15.3112C108.397 15.2601 108.446 15.1869 108.446 15.1485C108.446 15.0754 108.696 14.4693 108.818 14.248C109.879 12.3127 109.062 10.5084 106.966 10.1631C106.416 10.0723 106.461 10.0711 105.719 10.1997ZM56.5825 10.3118C55.5023 10.5309 55.2385 10.633 54.5551 11.0974C53.6856 11.6883 52.0484 13.6508 52.0484 14.1027C52.0484 14.1591 52.0023 14.2944 51.9464 14.4035C51.1258 15.9963 51.3466 18.1529 52.5191 19.9971C52.9552 20.6833 54.5524 21.884 55.0289 21.884C55.0803 21.884 55.2349 21.9416 55.373 22.0123C55.7929 22.2271 57.6725 22.1933 58.3517 21.9583C59.4905 21.5652 60.607 20.6218 61.1361 19.6058C61.519 18.8711 61.8532 18.1187 61.8547 17.9889C61.8553 17.9335 61.9067 17.7393 61.9693 17.5574C62.4217 16.2416 61.8929 14.0838 60.8615 13.0358C60.4061 12.5732 59.5651 11.9504 59.3957 11.9504C59.3437 11.9504 59.2369 11.901 59.1584 11.8407C58.716 11.5018 58.5791 11.7614 58.9969 12.1469C60.8501 13.8562 61.1358 15.7333 59.9203 18.2147C58.8727 20.353 57.027 21.0719 55.0731 20.1031C54.2204 19.6805 53.2281 18.4664 53.2281 17.8463C53.2281 17.7829 53.1865 17.6891 53.1357 17.6376C52.9778 17.477 53.0277 15.9731 53.2127 15.3253C53.6663 13.7358 55.1263 11.9062 56.3611 11.379C57.3275 10.9667 58.3264 10.8402 58.651 11.0889C58.8044 11.2065 59.1259 11.2428 59.1259 11.1425C59.1259 11.084 58.8483 10.8076 58.6002 10.619C58.2759 10.3728 57.1374 10.1994 56.5825 10.3118ZM20.8637 10.4212C18.7462 10.6961 17.0846 11.8059 15.759 13.8312C15.3172 14.5058 14.8115 15.7918 14.665 16.6124C14.628 16.8212 14.5658 17.143 14.527 17.328C13.9465 20.0876 15.4483 22.718 18.0252 23.4543C19.4232 23.8538 21.2436 23.4195 22.5963 22.363C22.7584 22.2365 22.9455 22.1022 23.0119 22.0644C23.2198 21.9471 23.8139 21.4199 24.3312 20.8942C24.8489 20.3682 25.0916 20.2686 25.1785 20.5465C25.6186 21.9513 27.5842 23.1008 29.5628 23.1105C30.6788 23.116 30.6066 23.1291 31.8744 22.6836C33.8157 22.0016 35.5085 20.1714 36.0683 18.1495C36.1965 17.6866 36.419 16.0554 36.3814 15.8537C36.3679 15.7814 36.3174 15.4194 36.2689 15.0498C35.9727 12.7863 34.3454 10.726 32.6333 10.4465C32.3942 10.4075 32.1776 10.3703 32.1523 10.3639C31.9526 10.3134 30.8601 10.4913 30.6415 10.6102C30.4947 10.69 30.3416 10.7552 30.3013 10.7552C29.8712 10.7552 28.0402 12.5361 27.6619 13.322C27.3385 13.9942 27.4137 14.0463 27.9232 13.5036C28.9546 12.4044 30.9567 11.4738 31.9797 11.6173C32.9209 11.7493 34.0401 12.6863 34.4293 13.6681C34.4699 13.7708 34.5478 13.9387 34.6023 14.0414C35.7657 16.2401 34.4756 19.9288 32.1433 21.0719C30.6607 21.7983 28.6906 21.8751 27.9353 21.2355C27.8712 21.1813 27.7939 21.1371 27.7632 21.1371C27.1923 21.1371 26.4103 19.6497 26.4852 18.7053C26.5586 17.779 26.3062 17.3929 25.6228 17.3868C25.1331 17.3822 25.0495 17.4453 24.4163 18.2964C22.8573 20.3917 21.4572 21.5509 20.0408 21.9184C18.4033 22.3435 16.6337 21.3595 16.0583 19.7045C15.8673 19.1551 15.8288 17.1948 16.0005 16.7679C16.0499 16.6444 16.1173 16.4259 16.1497 16.2821C16.2306 15.9268 16.449 15.2927 16.5254 15.1915C16.56 15.1461 16.6737 14.9456 16.7784 14.746C17.4831 13.4033 19.1841 12.0485 20.6309 11.6773C20.8604 11.6182 21.1642 11.539 21.3059 11.5006C22.2194 11.2544 23.4851 11.4884 24.2163 12.0387C24.878 12.5367 24.7815 12.0598 24.0707 11.3178C23.615 10.8424 22.9103 10.4852 22.3012 10.4206C22.0578 10.395 21.7925 10.3643 21.7113 10.3521C21.6304 10.3402 21.2487 10.3713 20.8637 10.4212ZM44.9711 10.3865C44.7885 10.4188 44.504 10.4481 44.3382 10.4511C44.0113 10.4569 43.1354 10.7001 42.8216 10.8719C42.714 10.9311 42.5915 10.9792 42.5491 10.9792C42.4763 10.9792 41.626 11.4619 41.4693 11.5923C41.4287 11.6261 41.241 11.77 41.0524 11.912C40.6671 12.2021 40.1046 13.0139 40.1545 13.208C40.181 13.3107 40.2514 13.2741 40.5251 13.016C40.711 12.8405 40.8972 12.6973 40.939 12.6973C40.9811 12.6973 41.0677 12.651 41.1315 12.5946C41.6946 12.0979 44.3491 11.5899 45.3029 11.7965C45.465 11.8318 45.7706 11.8964 45.9817 11.9403C46.1929 11.9842 46.4251 12.0525 46.4979 12.0924C46.5704 12.1323 46.7924 12.2426 46.9912 12.3377C47.4252 12.5452 47.9321 13.0331 48.3035 13.6014C50.3838 16.7834 47.1299 21.9474 43.644 20.9963C42.9044 20.7946 42.7371 21.099 43.4596 21.3312C43.5408 21.3574 43.6569 21.4199 43.7177 21.4698C44.5319 22.1403 46.6161 21.9282 47.9296 21.0411C52.2646 18.1135 50.9568 10.9012 46.0031 10.4179C45.7396 10.392 45.4743 10.3612 45.4132 10.3493C45.3525 10.3374 45.1534 10.3542 44.9711 10.3865ZM38.2975 11.1581C38.0361 11.2736 37.7479 11.635 37.5106 12.1454C37.4171 12.3462 37.3157 12.5217 37.2853 12.5355C37.2549 12.5492 37.2303 12.6311 37.2303 12.7177C37.2303 12.8557 37.2414 12.8609 37.3223 12.7591C37.5644 12.4538 38.274 11.9982 38.3408 12.1049C38.4244 12.239 38.4229 16.0615 38.339 17.0665C38.1778 18.9912 37.9612 21.0319 37.7801 22.3319C37.7203 22.7634 37.6712 23.2275 37.6718 23.3634C37.6721 23.499 37.6096 23.936 37.5329 24.3343C37.057 26.8008 36.7914 29.1445 36.5706 32.8204C36.5291 33.5161 36.5069 34.0973 36.5216 34.1122C36.6194 34.2112 36.9379 33.376 37.2679 32.1537C37.3232 31.9483 37.418 31.6122 37.4781 31.4068C37.5383 31.2014 37.6093 30.8988 37.6357 30.7346C37.6625 30.5703 37.7314 30.3092 37.7888 30.1541C37.8466 29.9992 37.8935 29.7701 37.8935 29.6451C37.8935 29.5199 37.9257 29.3569 37.9648 29.2828C38.0307 29.1585 38.1212 28.7971 38.3315 27.8216C38.5922 26.6103 38.8371 25.0395 39.0765 23.0416C39.1159 22.7128 39.1809 22.2582 39.2209 22.0309C39.2609 21.8035 39.3117 21.3498 39.334 21.0225C39.3565 20.6952 39.4215 20.041 39.4787 19.5686C39.747 17.3532 39.8498 15.2543 39.7401 14.2282C39.6919 13.7763 39.6351 13.1882 39.614 12.9212C39.509 11.5993 38.961 10.8652 38.2975 11.1581ZM68.6186 31.6463C68.7103 31.664 68.8429 31.6634 68.9133 31.6448C68.984 31.6262 68.9088 31.6116 68.7467 31.6122C68.5846 31.6131 68.5268 31.6283 68.6186 31.6463ZM76.8397 32.6519C76.9763 32.7022 77.1363 32.7028 77.3189 32.6538C77.5785 32.584 77.5673 32.5797 77.1143 32.5779C76.7062 32.5763 76.6653 32.5873 76.8397 32.6519ZM77.7776 32.6391C78.0233 32.7187 78.516 32.7187 78.6992 32.6391C78.7964 32.5968 78.633 32.5757 78.2201 32.577C77.7993 32.5785 77.654 32.5989 77.7776 32.6391ZM84.2088 32.7129C83.5248 32.7915 83.5476 32.8829 84.2437 32.8521C84.5935 32.8363 84.8874 32.7857 84.9403 32.7321C85.0447 32.6263 84.9758 32.6245 84.2088 32.7129Z" fill="white"/>
</svg>
