<svg width="87" height="120" viewBox="0 0 87 120" fill="none" xmlns="http://www.w3.org/2000/svg">
<path d="M86.0092 72.8997C86.0092 51.0561 63.483 18.9734 51.8785 5.32112C46.9637 -0.824219 41.6394 -0.822601 37.5437 1.22544C30.7176 3.27279 0 49.6909 0 72.8997C0 103.617 15.7001 120 43.0046 120C66.896 120 86.0092 106.348 86.0092 72.8997Z" fill="#7DE0F4"/>
<circle cx="12.2872" cy="74.2636" r="4.77829" fill="#D4F0F9"/>
<path d="M28.6696 96.7902C25.3429 94.2944 23.8913 91.3294 22.526 89.2821C20.4783 85.1859 16.8368 83.8209 15.0173 85.1853C12.9695 86.721 12.9696 89.2821 14.3349 92.0119C14.9456 93.2329 17.9867 99.3987 23.8914 103.616C28.6698 107.029 36.1783 108.395 40.274 108.395C43.7546 108.395 45.7349 107.03 46.4175 104.982C47.1001 102.934 43.687 101.569 40.274 100.886C37.5965 100.351 31.4 98.8386 28.6696 96.7902Z" fill="#D4F0F9"/>
</svg>
